<?xml version="1.0" encoding="UTF-8" standalone="no"?>
<!DOCTYPE svg PUBLIC "-//W3C//DTD SVG 1.1//EN"
 "http://www.w3.org/Graphics/SVG/1.1/DTD/svg11.dtd">
<!-- Generated by graphviz version 3.0.0 (20220226.1711)
 -->
<!-- Title: dependency&#45;cruiser output Pages: 1 -->
<svg width="725pt" height="831pt"
 viewBox="0.00 0.00 725.00 830.89" xmlns="http://www.w3.org/2000/svg" xmlns:xlink="http://www.w3.org/1999/xlink">
<g id="graph0" class="graph" transform="scale(1 1) rotate(0) translate(4 826.89)">
<title>dependency&#45;cruiser output</title>
<polygon fill="white" stroke="transparent" points="-4,4 -4,-826.89 721,-826.89 721,4 -4,4"/>
<g id="clust1" class="cluster">
<title>cluster_components</title>
<path fill="#ffffff" stroke="black" stroke-width="2" d="M113,-106.89C113,-106.89 697,-106.89 697,-106.89 703,-106.89 709,-112.89 709,-118.89 709,-118.89 709,-416.89 709,-416.89 709,-422.89 703,-428.89 697,-428.89 697,-428.89 113,-428.89 113,-428.89 107,-428.89 101,-422.89 101,-416.89 101,-416.89 101,-118.89 101,-118.89 101,-112.89 107,-106.89 113,-106.89"/>
<text text-anchor="middle" x="405" y="-417.69" font-family="Helvetica,sans-Serif" font-weight="bold" font-size="9.00">components</text>
</g>
<g id="clust2" class="cluster">
<title>cluster_components/Dish</title>
<path fill="#ffffff" stroke="black" stroke-width="2" d="M505,-320.89C505,-320.89 689,-320.89 689,-320.89 695,-320.89 701,-326.89 701,-332.89 701,-332.89 701,-390.89 701,-390.89 701,-396.89 695,-402.89 689,-402.89 689,-402.89 505,-402.89 505,-402.89 499,-402.89 493,-396.89 493,-390.89 493,-390.89 493,-332.89 493,-332.89 493,-326.89 499,-320.89 505,-320.89"/>
<text text-anchor="middle" x="597" y="-391.69" font-family="Helvetica,sans-Serif" font-weight="bold" font-size="9.00">Dish</text>
</g>
<g id="clust3" class="cluster">
<title>cluster_components/Menus</title>
<path fill="#ffffff" stroke="black" stroke-width="2" d="M121,-170.89C121,-170.89 601.5,-170.89 601.5,-170.89 607.5,-170.89 613.5,-176.89 613.5,-182.89 613.5,-182.89 613.5,-300.89 613.5,-300.89 613.5,-306.89 607.5,-312.89 601.5,-312.89 601.5,-312.89 121,-312.89 121,-312.89 115,-312.89 109,-306.89 109,-300.89 109,-300.89 109,-182.89 109,-182.89 109,-176.89 115,-170.89 121,-170.89"/>
<text text-anchor="middle" x="361.25" y="-301.69" font-family="Helvetica,sans-Serif" font-weight="bold" font-size="9.00">Menus</text>
</g>
<g id="clust4" class="cluster">
<title>cluster_pages</title>
<path fill="#ffffff" stroke="black" stroke-width="2" d="M20,-436.89C20,-436.89 196.5,-436.89 196.5,-436.89 202.5,-436.89 208.5,-442.89 208.5,-448.89 208.5,-448.89 208.5,-802.89 208.5,-802.89 208.5,-808.89 202.5,-814.89 196.5,-814.89 196.5,-814.89 20,-814.89 20,-814.89 14,-814.89 8,-808.89 8,-802.89 8,-802.89 8,-448.89 8,-448.89 8,-442.89 14,-436.89 20,-436.89"/>
<text text-anchor="middle" x="108.25" y="-803.69" font-family="Helvetica,sans-Serif" font-weight="bold" font-size="9.00">pages</text>
</g>
<g id="clust5" class="cluster">
<title>cluster_pages/dishes</title>
<path fill="#ffffff" stroke="black" stroke-width="2" d="M31,-470.89C31,-470.89 78,-470.89 78,-470.89 84,-470.89 90,-476.89 90,-482.89 90,-482.89 90,-600.89 90,-600.89 90,-606.89 84,-612.89 78,-612.89 78,-612.89 31,-612.89 31,-612.89 25,-612.89 19,-606.89 19,-600.89 19,-600.89 19,-482.89 19,-482.89 19,-476.89 25,-470.89 31,-470.89"/>
<text text-anchor="middle" x="54.5" y="-601.69" font-family="Helvetica,sans-Serif" font-weight="bold" font-size="9.00">dishes</text>
</g>
<g id="clust6" class="cluster">
<title>cluster_pages/menus</title>
<path fill="#ffffff" stroke="black" stroke-width="2" d="M28,-646.89C28,-646.89 81,-646.89 81,-646.89 87,-646.89 93,-652.89 93,-658.89 93,-658.89 93,-776.89 93,-776.89 93,-782.89 87,-788.89 81,-788.89 81,-788.89 28,-788.89 28,-788.89 22,-788.89 16,-782.89 16,-776.89 16,-776.89 16,-658.89 16,-658.89 16,-652.89 22,-646.89 28,-646.89"/>
<text text-anchor="middle" x="54.5" y="-777.69" font-family="Helvetica,sans-Serif" font-weight="bold" font-size="9.00">menus</text>
</g>
<!-- components/Dish/DishDisplay.js -->
<g id="node1" class="node">
<title>components/Dish/DishDisplay.js</title>
<g id="a_node1"><a xlink:href="components/Dish/DishDisplay.js" xlink:title="DishDisplay.js">
<path fill="#ffffcc" stroke="black" d="M592.5,-346.89C592.5,-346.89 529.5,-346.89 529.5,-346.89 526.5,-346.89 523.5,-343.89 523.5,-340.89 523.5,-340.89 523.5,-334.89 523.5,-334.89 523.5,-331.89 526.5,-328.89 529.5,-328.89 529.5,-328.89 592.5,-328.89 592.5,-328.89 595.5,-328.89 598.5,-331.89 598.5,-334.89 598.5,-334.89 598.5,-340.89 598.5,-340.89 598.5,-343.89 595.5,-346.89 592.5,-346.89"/>
<text text-anchor="start" x="531.5" y="-335.69" font-family="Helvetica,sans-Serif" font-size="9.00">DishDisplay.js</text>
</a>
</g>
</g>
<!-- components/Dish/DishTile.js -->
<g id="node2" class="node">
<title>components/Dish/DishTile.js</title>
<g id="a_node2"><a xlink:href="components/Dish/DishTile.js" xlink:title="DishTile.js">
<path fill="#ffffcc" stroke="black" d="M687,-346.89C687,-346.89 640,-346.89 640,-346.89 637,-346.89 634,-343.89 634,-340.89 634,-340.89 634,-334.89 634,-334.89 634,-331.89 637,-328.89 640,-328.89 640,-328.89 687,-328.89 687,-328.89 690,-328.89 693,-331.89 693,-334.89 693,-334.89 693,-340.89 693,-340.89 693,-343.89 690,-346.89 687,-346.89"/>
<text text-anchor="start" x="642" y="-335.69" font-family="Helvetica,sans-Serif" font-size="9.00">DishTile.js</text>
</a>
</g>
</g>
<!-- components/Dish/DishDisplay.js&#45;&gt;components/Dish/DishTile.js -->
<g id="edge1" class="edge">
<title>components/Dish/DishDisplay.js&#45;&gt;components/Dish/DishTile.js</title>
<path fill="none" stroke="#000000" stroke-width="2" stroke-opacity="0.200000" d="M598.57,-337.89C608.14,-337.89 618.44,-337.89 627.91,-337.89"/>
<polygon fill="#000000" fill-opacity="0.200000" stroke="#000000" stroke-width="2" stroke-opacity="0.200000" points="627.99,-339.99 633.99,-337.89 627.99,-335.79 627.99,-339.99"/>
</g>
<!-- components/Dish/DishSearchFormGroup.js -->
<g id="node3" class="node">
<title>components/Dish/DishSearchFormGroup.js</title>
<g id="a_node3"><a xlink:href="components/Dish/DishSearchFormGroup.js" xlink:title="DishSearchFormGroup.js">
<path fill="#ffffcc" stroke="black" d="M615,-376.89C615,-376.89 507,-376.89 507,-376.89 504,-376.89 501,-373.89 501,-370.89 501,-370.89 501,-364.89 501,-364.89 501,-361.89 504,-358.89 507,-358.89 507,-358.89 615,-358.89 615,-358.89 618,-358.89 621,-361.89 621,-364.89 621,-364.89 621,-370.89 621,-370.89 621,-373.89 618,-376.89 615,-376.89"/>
<text text-anchor="start" x="509" y="-365.69" font-family="Helvetica,sans-Serif" font-size="9.00">DishSearchFormGroup.js</text>
</a>
</g>
</g>
<!-- components/GlobalFooter.js -->
<g id="node4" class="node">
<title>components/GlobalFooter.js</title>
<g id="a_node4"><a xlink:href="components/GlobalFooter.js" xlink:title="GlobalFooter.js">
<path fill="#ffffcc" stroke="black" d="M207,-162.89C207,-162.89 140,-162.89 140,-162.89 137,-162.89 134,-159.89 134,-156.89 134,-156.89 134,-150.89 134,-150.89 134,-147.89 137,-144.89 140,-144.89 140,-144.89 207,-144.89 207,-144.89 210,-144.89 213,-147.89 213,-150.89 213,-150.89 213,-156.89 213,-156.89 213,-159.89 210,-162.89 207,-162.89"/>
<text text-anchor="start" x="142" y="-151.69" font-family="Helvetica,sans-Serif" font-size="9.00">GlobalFooter.js</text>
</a>
</g>
</g>
<!-- components/GlobalNav.js -->
<g id="node5" class="node">
<title>components/GlobalNav.js</title>
<g id="a_node5"><a xlink:href="components/GlobalNav.js" xlink:title="GlobalNav.js">
<path fill="#ffffcc" stroke="black" d="M202,-132.89C202,-132.89 145,-132.89 145,-132.89 142,-132.89 139,-129.89 139,-126.89 139,-126.89 139,-120.89 139,-120.89 139,-117.89 142,-114.89 145,-114.89 145,-114.89 202,-114.89 202,-114.89 205,-114.89 208,-117.89 208,-120.89 208,-120.89 208,-126.89 208,-126.89 208,-129.89 205,-132.89 202,-132.89"/>
<text text-anchor="start" x="147" y="-121.69" font-family="Helvetica,sans-Serif" font-size="9.00">GlobalNav.js</text>
</a>
</g>
</g>
<!-- components/Menus/MenuCategory.js -->
<g id="node6" class="node">
<title>components/Menus/MenuCategory.js</title>
<g id="a_node6"><a xlink:href="components/Menus/MenuCategory.js" xlink:title="MenuCategory.js">
<path fill="#ffffcc" stroke="black" d="M347,-256.89C347,-256.89 273,-256.89 273,-256.89 270,-256.89 267,-253.89 267,-250.89 267,-250.89 267,-244.89 267,-244.89 267,-241.89 270,-238.89 273,-238.89 273,-238.89 347,-238.89 347,-238.89 350,-238.89 353,-241.89 353,-244.89 353,-244.89 353,-250.89 353,-250.89 353,-253.89 350,-256.89 347,-256.89"/>
<text text-anchor="start" x="275" y="-245.69" font-family="Helvetica,sans-Serif" font-size="9.00">MenuCategory.js</text>
</a>
</g>
</g>
<!-- components/Menus/MenuCategory.js&#45;&gt;components/Dish/DishDisplay.js -->
<g id="edge2" class="edge">
<title>components/Menus/MenuCategory.js&#45;&gt;components/Dish/DishDisplay.js</title>
<path fill="none" stroke="#000000" stroke-width="2" stroke-opacity="0.200000" d="M353.26,-256.13C361.23,-258.07 369.43,-260.33 377,-262.89 430.7,-281.04 440.21,-295.24 493,-315.89 503.01,-319.8 514.03,-323.62 524.19,-326.94"/>
<polygon fill="#000000" fill-opacity="0.200000" stroke="#000000" stroke-width="2" stroke-opacity="0.200000" points="523.71,-328.99 530.06,-328.84 525,-325 523.71,-328.99"/>
</g>
<!-- components/Menus/MenuCategoryForm.js -->
<g id="node7" class="node">
<title>components/Menus/MenuCategoryForm.js</title>
<g id="a_node7"><a xlink:href="components/Menus/MenuCategoryForm.js" xlink:title="MenuCategoryForm.js">
<path fill="#ffffcc" stroke="black" d="M357.5,-196.89C357.5,-196.89 262.5,-196.89 262.5,-196.89 259.5,-196.89 256.5,-193.89 256.5,-190.89 256.5,-190.89 256.5,-184.89 256.5,-184.89 256.5,-181.89 259.5,-178.89 262.5,-178.89 262.5,-178.89 357.5,-178.89 357.5,-178.89 360.5,-178.89 363.5,-181.89 363.5,-184.89 363.5,-184.89 363.5,-190.89 363.5,-190.89 363.5,-193.89 360.5,-196.89 357.5,-196.89"/>
<text text-anchor="start" x="264.5" y="-185.69" font-family="Helvetica,sans-Serif" font-size="9.00">MenuCategoryForm.js</text>
</a>
</g>
</g>
<!-- components/Menus/MenuItemSearch.js -->
<g id="node8" class="node">
<title>components/Menus/MenuItemSearch.js</title>
<g id="a_node8"><a xlink:href="components/Menus/MenuItemSearch.js" xlink:title="MenuItemSearch.js">
<path fill="#ffffcc" stroke="black" d="M479,-215.89C479,-215.89 396,-215.89 396,-215.89 393,-215.89 390,-212.89 390,-209.89 390,-209.89 390,-203.89 390,-203.89 390,-200.89 393,-197.89 396,-197.89 396,-197.89 479,-197.89 479,-197.89 482,-197.89 485,-200.89 485,-203.89 485,-203.89 485,-209.89 485,-209.89 485,-212.89 482,-215.89 479,-215.89"/>
<text text-anchor="start" x="398" y="-204.69" font-family="Helvetica,sans-Serif" font-size="9.00">MenuItemSearch.js</text>
</a>
</g>
</g>
<!-- components/Menus/MenuCategoryForm.js&#45;&gt;components/Menus/MenuItemSearch.js -->
<g id="edge3" class="edge">
<title>components/Menus/MenuCategoryForm.js&#45;&gt;components/Menus/MenuItemSearch.js</title>
<path fill="none" stroke="#000000" stroke-width="2" stroke-opacity="0.200000" d="M363.86,-195.89C370.42,-196.88 377.14,-197.9 383.7,-198.89"/>
<polygon fill="#000000" fill-opacity="0.200000" stroke="#000000" stroke-width="2" stroke-opacity="0.200000" points="383.43,-200.98 389.68,-199.8 384.06,-196.82 383.43,-200.98"/>
</g>
<!-- components/Menus/MenuItemSearch.js&#45;&gt;components/Dish/DishSearchFormGroup.js -->
<g id="edge6" class="edge">
<title>components/Menus/MenuItemSearch.js&#45;&gt;components/Dish/DishSearchFormGroup.js</title>
<path fill="none" stroke="#000000" stroke-width="2" stroke-opacity="0.200000" d="M439.03,-216.09C441.02,-241.93 450.37,-315.73 493,-352.89 494.06,-353.81 495.16,-354.68 496.3,-355.5"/>
<polygon fill="#000000" fill-opacity="0.200000" stroke="#000000" stroke-width="2" stroke-opacity="0.200000" points="495.33,-357.37 501.53,-358.78 497.56,-353.81 495.33,-357.37"/>
</g>
<!-- components/Menus/MenuItemTable.js -->
<g id="node12" class="node">
<title>components/Menus/MenuItemTable.js</title>
<g id="a_node12"><a xlink:href="components/Menus/MenuItemTable.js" xlink:title="MenuItemTable.js">
<path fill="#ffffcc" stroke="black" d="M599.5,-215.89C599.5,-215.89 522.5,-215.89 522.5,-215.89 519.5,-215.89 516.5,-212.89 516.5,-209.89 516.5,-209.89 516.5,-203.89 516.5,-203.89 516.5,-200.89 519.5,-197.89 522.5,-197.89 522.5,-197.89 599.5,-197.89 599.5,-197.89 602.5,-197.89 605.5,-200.89 605.5,-203.89 605.5,-203.89 605.5,-209.89 605.5,-209.89 605.5,-212.89 602.5,-215.89 599.5,-215.89"/>
<text text-anchor="start" x="524.5" y="-204.69" font-family="Helvetica,sans-Serif" font-size="9.00">MenuItemTable.js</text>
</a>
</g>
</g>
<!-- components/Menus/MenuItemSearch.js&#45;&gt;components/Menus/MenuItemTable.js -->
<g id="edge7" class="edge">
<title>components/Menus/MenuItemSearch.js&#45;&gt;components/Menus/MenuItemTable.js</title>
<path fill="none" stroke="#000000" stroke-width="2" stroke-opacity="0.200000" d="M485.13,-206.89C493.34,-206.89 501.92,-206.89 510.21,-206.89"/>
<polygon fill="#000000" fill-opacity="0.200000" stroke="#000000" stroke-width="2" stroke-opacity="0.200000" points="510.49,-208.99 516.49,-206.89 510.49,-204.79 510.49,-208.99"/>
</g>
<!-- components/Menus/MenuContent.js -->
<g id="node9" class="node">
<title>components/Menus/MenuContent.js</title>
<g id="a_node9"><a xlink:href="components/Menus/MenuContent.js" xlink:title="MenuContent.js">
<path fill="#ffffcc" stroke="black" d="M208,-286.89C208,-286.89 139,-286.89 139,-286.89 136,-286.89 133,-283.89 133,-280.89 133,-280.89 133,-274.89 133,-274.89 133,-271.89 136,-268.89 139,-268.89 139,-268.89 208,-268.89 208,-268.89 211,-268.89 214,-271.89 214,-274.89 214,-274.89 214,-280.89 214,-280.89 214,-283.89 211,-286.89 208,-286.89"/>
<text text-anchor="start" x="141" y="-275.69" font-family="Helvetica,sans-Serif" font-size="9.00">MenuContent.js</text>
</a>
</g>
</g>
<!-- components/Menus/MenuContent.js&#45;&gt;components/Menus/MenuCategory.js -->
<g id="edge4" class="edge">
<title>components/Menus/MenuContent.js&#45;&gt;components/Menus/MenuCategory.js</title>
<path fill="none" stroke="#000000" stroke-width="2" stroke-opacity="0.200000" d="M214.13,-269.05C229.18,-265.69 246.46,-261.84 262.12,-258.34"/>
<polygon fill="#000000" fill-opacity="0.200000" stroke="#000000" stroke-width="2" stroke-opacity="0.200000" points="262.86,-260.33 268.26,-256.97 261.94,-256.23 262.86,-260.33"/>
</g>
<!-- components/Menus/MenuDisplay.js -->
<g id="node10" class="node">
<title>components/Menus/MenuDisplay.js</title>
<g id="a_node10"><a xlink:href="components/Menus/MenuDisplay.js" xlink:title="MenuDisplay.js">
<path fill="#ffffcc" stroke="black" d="M207.5,-256.89C207.5,-256.89 139.5,-256.89 139.5,-256.89 136.5,-256.89 133.5,-253.89 133.5,-250.89 133.5,-250.89 133.5,-244.89 133.5,-244.89 133.5,-241.89 136.5,-238.89 139.5,-238.89 139.5,-238.89 207.5,-238.89 207.5,-238.89 210.5,-238.89 213.5,-241.89 213.5,-244.89 213.5,-244.89 213.5,-250.89 213.5,-250.89 213.5,-253.89 210.5,-256.89 207.5,-256.89"/>
<text text-anchor="start" x="141.5" y="-245.69" font-family="Helvetica,sans-Serif" font-size="9.00">MenuDisplay.js</text>
</a>
</g>
</g>
<!-- components/Menus/MenuName.js -->
<g id="node11" class="node">
<title>components/Menus/MenuName.js</title>
<g id="a_node11"><a xlink:href="components/Menus/MenuName.js" xlink:title="MenuName.js">
<path fill="#ffffcc" stroke="black" d="M341,-286.89C341,-286.89 279,-286.89 279,-286.89 276,-286.89 273,-283.89 273,-280.89 273,-280.89 273,-274.89 273,-274.89 273,-271.89 276,-268.89 279,-268.89 279,-268.89 341,-268.89 341,-268.89 344,-268.89 347,-271.89 347,-274.89 347,-274.89 347,-280.89 347,-280.89 347,-283.89 344,-286.89 341,-286.89"/>
<text text-anchor="start" x="281" y="-275.69" font-family="Helvetica,sans-Serif" font-size="9.00">MenuName.js</text>
</a>
</g>
</g>
<!-- components/Menus/MenuDisplay.js&#45;&gt;components/Menus/MenuName.js -->
<g id="edge5" class="edge">
<title>components/Menus/MenuDisplay.js&#45;&gt;components/Menus/MenuName.js</title>
<path fill="none" stroke="#000000" stroke-width="2" stroke-opacity="0.200000" d="M213.76,-256.64C230.34,-260.34 249.67,-264.65 266.57,-268.42"/>
<polygon fill="#000000" fill-opacity="0.200000" stroke="#000000" stroke-width="2" stroke-opacity="0.200000" points="266.37,-270.53 272.68,-269.79 267.28,-266.43 266.37,-270.53"/>
</g>
<!-- components/Menus/MenuNewCategory.js -->
<g id="node13" class="node">
<title>components/Menus/MenuNewCategory.js</title>
<g id="a_node13"><a xlink:href="components/Menus/MenuNewCategory.js" xlink:title="MenuNewCategory.js">
<path fill="#ffffcc" stroke="black" d="M220,-196.89C220,-196.89 127,-196.89 127,-196.89 124,-196.89 121,-193.89 121,-190.89 121,-190.89 121,-184.89 121,-184.89 121,-181.89 124,-178.89 127,-178.89 127,-178.89 220,-178.89 220,-178.89 223,-178.89 226,-181.89 226,-184.89 226,-184.89 226,-190.89 226,-190.89 226,-193.89 223,-196.89 220,-196.89"/>
<text text-anchor="start" x="129" y="-185.69" font-family="Helvetica,sans-Serif" font-size="9.00">MenuNewCategory.js</text>
</a>
</g>
</g>
<!-- components/Menus/MenuNewCategory.js&#45;&gt;components/Menus/MenuCategory.js -->
<g id="edge8" class="edge">
<title>components/Menus/MenuNewCategory.js&#45;&gt;components/Menus/MenuCategory.js</title>
<path fill="none" stroke="#000000" stroke-width="2" stroke-opacity="0.200000" d="M221.26,-197.01C224.4,-198.66 227.36,-200.6 230,-202.89 240.99,-212.39 231.82,-223.61 243,-232.89 248.19,-237.2 254.38,-240.33 260.84,-242.59"/>
<polygon fill="#000000" fill-opacity="0.200000" stroke="#000000" stroke-width="2" stroke-opacity="0.200000" points="260.49,-244.68 266.85,-244.43 261.73,-240.66 260.49,-244.68"/>
</g>
<!-- components/Menus/MenuNewCategory.js&#45;&gt;components/Menus/MenuCategoryForm.js -->
<g id="edge9" class="edge">
<title>components/Menus/MenuNewCategory.js&#45;&gt;components/Menus/MenuCategoryForm.js</title>
<path fill="none" stroke="#000000" stroke-width="2" stroke-opacity="0.200000" d="M226.12,-187.89C234.03,-187.89 242.24,-187.89 250.29,-187.89"/>
<polygon fill="#000000" fill-opacity="0.200000" stroke="#000000" stroke-width="2" stroke-opacity="0.200000" points="250.41,-189.99 256.41,-187.89 250.41,-185.79 250.41,-189.99"/>
</g>
<!-- components/Menus/MenuNewRestaurant.js -->
<g id="node14" class="node">
<title>components/Menus/MenuNewRestaurant.js</title>
<g id="a_node14"><a xlink:href="components/Menus/MenuNewRestaurant.js" xlink:title="MenuNewRestaurant.js">
<path fill="#ffffcc" stroke="black" d="M224,-226.89C224,-226.89 123,-226.89 123,-226.89 120,-226.89 117,-223.89 117,-220.89 117,-220.89 117,-214.89 117,-214.89 117,-211.89 120,-208.89 123,-208.89 123,-208.89 224,-208.89 224,-208.89 227,-208.89 230,-211.89 230,-214.89 230,-214.89 230,-220.89 230,-220.89 230,-223.89 227,-226.89 224,-226.89"/>
<text text-anchor="start" x="125" y="-215.69" font-family="Helvetica,sans-Serif" font-size="9.00">MenuNewRestaurant.js</text>
</a>
</g>
</g>
<!-- components/Menus/MenuNewRestaurant.js&#45;&gt;components/Menus/MenuName.js -->
<g id="edge10" class="edge">
<title>components/Menus/MenuNewRestaurant.js&#45;&gt;components/Menus/MenuName.js</title>
<path fill="none" stroke="#000000" stroke-width="2" stroke-opacity="0.200000" d="M221.26,-227.01C224.4,-228.66 227.36,-230.6 230,-232.89 240.99,-242.39 231.82,-253.61 243,-262.89 249.76,-268.5 258.2,-272.11 266.76,-274.41"/>
<polygon fill="#000000" fill-opacity="0.200000" stroke="#000000" stroke-width="2" stroke-opacity="0.200000" points="266.37,-276.48 272.69,-275.81 267.33,-272.39 266.37,-276.48"/>
</g>
<!-- components/Menus/MenuNewRestaurantForm.js -->
<g id="node15" class="node">
<title>components/Menus/MenuNewRestaurantForm.js</title>
<g id="a_node15"><a xlink:href="components/Menus/MenuNewRestaurantForm.js" xlink:title="MenuNewRestaurantForm.js">
<path fill="#ffffcc" stroke="black" d="M371,-226.89C371,-226.89 249,-226.89 249,-226.89 246,-226.89 243,-223.89 243,-220.89 243,-220.89 243,-214.89 243,-214.89 243,-211.89 246,-208.89 249,-208.89 249,-208.89 371,-208.89 371,-208.89 374,-208.89 377,-211.89 377,-214.89 377,-214.89 377,-220.89 377,-220.89 377,-223.89 374,-226.89 371,-226.89"/>
<text text-anchor="start" x="251" y="-215.69" font-family="Helvetica,sans-Serif" font-size="9.00">MenuNewRestaurantForm.js</text>
</a>
</g>
</g>
<!-- components/Menus/MenuNewRestaurant.js&#45;&gt;components/Menus/MenuNewRestaurantForm.js -->
<g id="edge11" class="edge">
<title>components/Menus/MenuNewRestaurant.js&#45;&gt;components/Menus/MenuNewRestaurantForm.js</title>
<path fill="none" stroke="#000000" stroke-width="2" stroke-opacity="0.200000" d="M230.37,-217.89C232.39,-217.89 234.43,-217.89 236.47,-217.89"/>
<polygon fill="#000000" fill-opacity="0.200000" stroke="#000000" stroke-width="2" stroke-opacity="0.200000" points="236.61,-219.99 242.61,-217.89 236.61,-215.79 236.61,-219.99"/>
</g>
<!-- pages/404.js -->
<g id="node16" class="node">
<title>pages/404.js</title>
<g id="a_node16"><a xlink:href="pages/404.js" xlink:title="404.js">
<path fill="#ffffcc" stroke="black" d="M194.5,-674.89C194.5,-674.89 152.5,-674.89 152.5,-674.89 149.5,-674.89 146.5,-671.89 146.5,-668.89 146.5,-668.89 146.5,-662.89 146.5,-662.89 146.5,-659.89 149.5,-656.89 152.5,-656.89 152.5,-656.89 194.5,-656.89 194.5,-656.89 197.5,-656.89 200.5,-659.89 200.5,-662.89 200.5,-662.89 200.5,-668.89 200.5,-668.89 200.5,-671.89 197.5,-674.89 194.5,-674.89"/>
<text text-anchor="start" x="161" y="-663.69" font-family="Helvetica,sans-Serif" font-size="9.00">404.js</text>
</a>
</g>
</g>
<!-- pages/_app.js -->
<g id="node17" class="node">
<title>pages/_app.js</title>
<g id="a_node17"><a xlink:href="pages/_app.js" xlink:title="_app.js">
<path fill="#ffffcc" stroke="black" d="M75.5,-638.89C75.5,-638.89 33.5,-638.89 33.5,-638.89 30.5,-638.89 27.5,-635.89 27.5,-632.89 27.5,-632.89 27.5,-626.89 27.5,-626.89 27.5,-623.89 30.5,-620.89 33.5,-620.89 33.5,-620.89 75.5,-620.89 75.5,-620.89 78.5,-620.89 81.5,-623.89 81.5,-626.89 81.5,-626.89 81.5,-632.89 81.5,-632.89 81.5,-635.89 78.5,-638.89 75.5,-638.89"/>
<text text-anchor="start" x="39" y="-627.69" font-family="Helvetica,sans-Serif" font-size="9.00">_app.js</text>
</a>
</g>
</g>
<!-- pages/_app.js&#45;&gt;components/GlobalFooter.js -->
<g id="edge12" class="edge">
<title>pages/_app.js&#45;&gt;components/GlobalFooter.js</title>
<path fill="none" stroke="#000000" stroke-width="2" stroke-opacity="0.200000" d="M81.67,-624.74C86.11,-622.7 90.19,-619.86 93,-615.89 107.38,-595.56 85.01,-186.96 101,-167.89 107.72,-159.86 117.57,-155.57 127.82,-153.42"/>
<polygon fill="#000000" fill-opacity="0.200000" stroke="#000000" stroke-width="2" stroke-opacity="0.200000" points="128.32,-155.47 133.89,-152.4 127.62,-151.33 128.32,-155.47"/>
</g>
<!-- pages/_app.js&#45;&gt;components/GlobalNav.js -->
<g id="edge13" class="edge">
<title>pages/_app.js&#45;&gt;components/GlobalNav.js</title>
<path fill="none" stroke="#000000" stroke-width="2" stroke-opacity="0.200000" d="M81.68,-624.75C86.12,-622.71 90.19,-619.86 93,-615.89 108.29,-594.24 84.12,-159.32 101,-138.89 108.7,-129.56 120.59,-125.1 132.48,-123.18"/>
<polygon fill="#000000" fill-opacity="0.200000" stroke="#000000" stroke-width="2" stroke-opacity="0.200000" points="132.98,-125.23 138.67,-122.39 132.45,-121.06 132.98,-125.23"/>
</g>
<!-- pages/dishes/[dishId].js -->
<g id="node18" class="node">
<title>pages/dishes/[dishId].js</title>
<g id="a_node18"><a xlink:href="pages/dishes/[dishId].js" xlink:title="[dishId].js">
<path fill="#ffffcc" stroke="black" d="M76,-586.89C76,-586.89 33,-586.89 33,-586.89 30,-586.89 27,-583.89 27,-580.89 27,-580.89 27,-574.89 27,-574.89 27,-571.89 30,-568.89 33,-568.89 33,-568.89 76,-568.89 76,-568.89 79,-568.89 82,-571.89 82,-574.89 82,-574.89 82,-580.89 82,-580.89 82,-583.89 79,-586.89 76,-586.89"/>
<text text-anchor="start" x="35" y="-575.69" font-family="Helvetica,sans-Serif" font-size="9.00">[dishId].js</text>
</a>
</g>
</g>
<!-- pages/dishes/[dishId].js&#45;&gt;components/Dish/DishTile.js -->
<g id="edge14" class="edge">
<title>pages/dishes/[dishId].js&#45;&gt;components/Dish/DishTile.js</title>
<path fill="none" stroke="#000000" stroke-width="2" stroke-opacity="0.200000" d="M82.09,-571.85C86.38,-569.71 90.29,-566.81 93,-562.89 107.39,-542.03 83.4,-125.12 101,-106.89 133.15,-73.58 262.71,-95.89 309,-95.89 309,-95.89 309,-95.89 438.5,-95.89 525.7,-95.89 563.69,-102.17 621,-167.89 660.52,-213.2 663.74,-290.06 663.16,-322.6"/>
<polygon fill="#000000" fill-opacity="0.200000" stroke="#000000" stroke-width="2" stroke-opacity="0.200000" points="661.06,-322.79 663,-328.85 665.26,-322.91 661.06,-322.79"/>
</g>
<!-- pages/dishes/[dishId].js&#45;&gt;pages/404.js -->
<g id="edge15" class="edge">
<title>pages/dishes/[dishId].js&#45;&gt;pages/404.js</title>
<path fill="none" stroke="#000000" stroke-width="2" stroke-opacity="0.200000" d="M82.36,-585.63C86.05,-587.14 89.7,-588.89 93,-590.89 120.64,-607.65 146.71,-635.32 161.05,-651.95"/>
<polygon fill="#000000" fill-opacity="0.200000" stroke="#000000" stroke-width="2" stroke-opacity="0.200000" points="159.62,-653.52 165.11,-656.74 162.83,-650.8 159.62,-653.52"/>
</g>
<!-- pages/dishes/index.js -->
<g id="node19" class="node">
<title>pages/dishes/index.js</title>
<g id="a_node19"><a xlink:href="pages/dishes/index.js" xlink:title="index.js">
<path fill="#ffffcc" stroke="black" d="M75.5,-526.89C75.5,-526.89 33.5,-526.89 33.5,-526.89 30.5,-526.89 27.5,-523.89 27.5,-520.89 27.5,-520.89 27.5,-514.89 27.5,-514.89 27.5,-511.89 30.5,-508.89 33.5,-508.89 33.5,-508.89 75.5,-508.89 75.5,-508.89 78.5,-508.89 81.5,-511.89 81.5,-514.89 81.5,-514.89 81.5,-520.89 81.5,-520.89 81.5,-523.89 78.5,-526.89 75.5,-526.89"/>
<text text-anchor="start" x="38.5" y="-515.69" font-family="Helvetica,sans-Serif" font-size="9.00">index.js</text>
</a>
</g>
</g>
<!-- pages/dishes/index.js&#45;&gt;components/Dish/DishDisplay.js -->
<g id="edge16" class="edge">
<title>pages/dishes/index.js&#45;&gt;components/Dish/DishDisplay.js</title>
<path fill="none" stroke="#000000" stroke-width="2" stroke-opacity="0.200000" d="M81.71,-512.03C86.14,-509.88 90.21,-506.93 93,-502.89 106.98,-482.63 83.44,-77.13 101,-59.89 131.44,-29.99 454.36,-30.19 485,-59.89 505.43,-79.69 475.95,-293.1 493,-315.89 498.95,-323.84 507.86,-328.96 517.26,-332.25"/>
<polygon fill="#000000" fill-opacity="0.200000" stroke="#000000" stroke-width="2" stroke-opacity="0.200000" points="516.8,-334.31 523.15,-334.07 518.04,-330.29 516.8,-334.31"/>
</g>
<!-- pages/dishes/new.js -->
<g id="node20" class="node">
<title>pages/dishes/new.js</title>
<g id="a_node20"><a xlink:href="pages/dishes/new.js" xlink:title="new.js">
<path fill="#ffffcc" stroke="black" d="M75.5,-496.89C75.5,-496.89 33.5,-496.89 33.5,-496.89 30.5,-496.89 27.5,-493.89 27.5,-490.89 27.5,-490.89 27.5,-484.89 27.5,-484.89 27.5,-481.89 30.5,-478.89 33.5,-478.89 33.5,-478.89 75.5,-478.89 75.5,-478.89 78.5,-478.89 81.5,-481.89 81.5,-484.89 81.5,-484.89 81.5,-490.89 81.5,-490.89 81.5,-493.89 78.5,-496.89 75.5,-496.89"/>
<text text-anchor="start" x="41.5" y="-485.69" font-family="Helvetica,sans-Serif" font-size="9.00">new.js</text>
</a>
</g>
</g>
<!-- pages/dishes/new.js&#45;&gt;components/Dish/DishTile.js -->
<g id="edge17" class="edge">
<title>pages/dishes/new.js&#45;&gt;components/Dish/DishTile.js</title>
<path fill="none" stroke="#000000" stroke-width="2" stroke-opacity="0.200000" d="M81.64,-483.45C86.08,-481.53 90.17,-478.79 93,-474.89 107.32,-455.14 84.35,-53.71 101,-35.89 164.34,31.92 216.21,-17.89 309,-17.89 309,-17.89 309,-17.89 438.5,-17.89 525.06,-17.89 565.99,-19.06 621,-85.89 651.14,-122.51 659.89,-273.91 661.95,-322.68"/>
<polygon fill="#000000" fill-opacity="0.200000" stroke="#000000" stroke-width="2" stroke-opacity="0.200000" points="659.86,-322.94 662.2,-328.86 664.05,-322.78 659.86,-322.94"/>
</g>
<!-- pages/dishes/search.js -->
<g id="node21" class="node">
<title>pages/dishes/search.js</title>
<g id="a_node21"><a xlink:href="pages/dishes/search.js" xlink:title="search.js">
<path fill="#ffffcc" stroke="black" d="M75.5,-556.89C75.5,-556.89 33.5,-556.89 33.5,-556.89 30.5,-556.89 27.5,-553.89 27.5,-550.89 27.5,-550.89 27.5,-544.89 27.5,-544.89 27.5,-541.89 30.5,-538.89 33.5,-538.89 33.5,-538.89 75.5,-538.89 75.5,-538.89 78.5,-538.89 81.5,-541.89 81.5,-544.89 81.5,-544.89 81.5,-550.89 81.5,-550.89 81.5,-553.89 78.5,-556.89 75.5,-556.89"/>
<text text-anchor="start" x="36" y="-545.69" font-family="Helvetica,sans-Serif" font-size="9.00">search.js</text>
</a>
</g>
</g>
<!-- pages/dishes/search.js&#45;&gt;components/Dish/DishDisplay.js -->
<g id="edge18" class="edge">
<title>pages/dishes/search.js&#45;&gt;components/Dish/DishDisplay.js</title>
<path fill="none" stroke="#000000" stroke-width="2" stroke-opacity="0.200000" d="M81.71,-542.04C86.14,-539.88 90.21,-536.93 93,-532.89 107.11,-512.44 83.28,-103.29 101,-85.89 141.9,-45.71 173.36,-77 230,-85.89 347.61,-104.33 412.31,-73.61 485,-167.89 505.11,-193.97 472.97,-289.74 493,-315.89 499.04,-323.77 507.99,-328.87 517.39,-332.15"/>
<polygon fill="#000000" fill-opacity="0.200000" stroke="#000000" stroke-width="2" stroke-opacity="0.200000" points="516.92,-334.21 523.28,-333.97 518.16,-330.2 516.92,-334.21"/>
</g>
<!-- pages/dishes/search.js&#45;&gt;components/Dish/DishSearchFormGroup.js -->
<g id="edge19" class="edge">
<title>pages/dishes/search.js&#45;&gt;components/Dish/DishSearchFormGroup.js</title>
<path fill="none" stroke="#000000" stroke-width="2" stroke-opacity="0.200000" d="M81.56,-540.93C85.79,-538.88 89.83,-536.25 93,-532.89 100.71,-524.71 92.96,-516.74 101,-508.89 209.66,-402.78 396.13,-376.28 494.63,-369.83"/>
<polygon fill="#000000" fill-opacity="0.200000" stroke="#000000" stroke-width="2" stroke-opacity="0.200000" points="494.84,-371.92 500.69,-369.45 494.58,-367.73 494.84,-371.92"/>
</g>
<!-- pages/index.js -->
<g id="node22" class="node">
<title>pages/index.js</title>
<g id="a_node22"><a xlink:href="pages/index.js" xlink:title="index.js">
<path fill="#ccffcc" stroke="black" d="M75.5,-462.89C75.5,-462.89 33.5,-462.89 33.5,-462.89 30.5,-462.89 27.5,-459.89 27.5,-456.89 27.5,-456.89 27.5,-450.89 27.5,-450.89 27.5,-447.89 30.5,-444.89 33.5,-444.89 33.5,-444.89 75.5,-444.89 75.5,-444.89 78.5,-444.89 81.5,-447.89 81.5,-450.89 81.5,-450.89 81.5,-456.89 81.5,-456.89 81.5,-459.89 78.5,-462.89 75.5,-462.89"/>
<text text-anchor="start" x="38.5" y="-451.69" font-family="Helvetica,sans-Serif" font-size="9.00">index.js</text>
</a>
</g>
</g>
<!-- pages/menus/[menuId].js -->
<g id="node23" class="node">
<title>pages/menus/[menuId].js</title>
<g id="a_node23"><a xlink:href="pages/menus/[menuId].js" xlink:title="[menuId].js">
<path fill="#ffffcc" stroke="black" d="M79,-762.89C79,-762.89 30,-762.89 30,-762.89 27,-762.89 24,-759.89 24,-756.89 24,-756.89 24,-750.89 24,-750.89 24,-747.89 27,-744.89 30,-744.89 30,-744.89 79,-744.89 79,-744.89 82,-744.89 85,-747.89 85,-750.89 85,-750.89 85,-756.89 85,-756.89 85,-759.89 82,-762.89 79,-762.89"/>
<text text-anchor="start" x="32" y="-751.69" font-family="Helvetica,sans-Serif" font-size="9.00">[menuId].js</text>
</a>
</g>
</g>
<!-- pages/menus/[menuId].js&#45;&gt;components/Menus/MenuContent.js -->
<g id="edge20" class="edge">
<title>pages/menus/[menuId].js&#45;&gt;components/Menus/MenuContent.js</title>
<path fill="none" stroke="#000000" stroke-width="2" stroke-opacity="0.200000" d="M85.32,-745.93C88.3,-744.06 90.97,-741.74 93,-738.89 104.09,-723.3 98.24,-585.82 101,-566.89 116.5,-460.34 154.12,-335.84 167.59,-293.15"/>
<polygon fill="#000000" fill-opacity="0.200000" stroke="#000000" stroke-width="2" stroke-opacity="0.200000" points="169.66,-293.59 169.47,-287.23 165.65,-292.32 169.66,-293.59"/>
</g>
<!-- pages/menus/[menuId].js&#45;&gt;components/Menus/MenuName.js -->
<g id="edge21" class="edge">
<title>pages/menus/[menuId].js&#45;&gt;components/Menus/MenuName.js</title>
<path fill="none" stroke="#000000" stroke-width="2" stroke-opacity="0.200000" d="M85.3,-745.92C88.28,-744.05 90.96,-741.74 93,-738.89 102.78,-725.23 95.68,-603.82 101,-587.89 144.16,-458.5 256.92,-332.35 295.68,-291.55"/>
<polygon fill="#000000" fill-opacity="0.200000" stroke="#000000" stroke-width="2" stroke-opacity="0.200000" points="297.4,-292.79 300.04,-287 294.37,-289.89 297.4,-292.79"/>
</g>
<!-- pages/menus/[menuId].js&#45;&gt;pages/404.js -->
<g id="edge22" class="edge">
<title>pages/menus/[menuId].js&#45;&gt;pages/404.js</title>
<path fill="none" stroke="#000000" stroke-width="2" stroke-opacity="0.200000" d="M81.92,-744.73C85.75,-743.01 89.56,-741.05 93,-738.89 119.73,-722.06 145.73,-695.75 160.37,-679.73"/>
<polygon fill="#000000" fill-opacity="0.200000" stroke="#000000" stroke-width="2" stroke-opacity="0.200000" points="162.07,-680.97 164.54,-675.11 158.96,-678.16 162.07,-680.97"/>
</g>
<!-- pages/menus/index.js -->
<g id="node24" class="node">
<title>pages/menus/index.js</title>
<g id="a_node24"><a xlink:href="pages/menus/index.js" xlink:title="index.js">
<path fill="#ffffcc" stroke="black" d="M75.5,-702.89C75.5,-702.89 33.5,-702.89 33.5,-702.89 30.5,-702.89 27.5,-699.89 27.5,-696.89 27.5,-696.89 27.5,-690.89 27.5,-690.89 27.5,-687.89 30.5,-684.89 33.5,-684.89 33.5,-684.89 75.5,-684.89 75.5,-684.89 78.5,-684.89 81.5,-687.89 81.5,-690.89 81.5,-690.89 81.5,-696.89 81.5,-696.89 81.5,-699.89 78.5,-702.89 75.5,-702.89"/>
<text text-anchor="start" x="38.5" y="-691.69" font-family="Helvetica,sans-Serif" font-size="9.00">index.js</text>
</a>
</g>
</g>
<!-- pages/menus/index.js&#45;&gt;components/Menus/MenuDisplay.js -->
<g id="edge23" class="edge">
<title>pages/menus/index.js&#45;&gt;components/Menus/MenuDisplay.js</title>
<path fill="none" stroke="#000000" stroke-width="2" stroke-opacity="0.200000" d="M81.7,-688.03C86.14,-685.88 90.21,-682.92 93,-678.89 106.14,-659.87 86.26,-280.69 101,-262.89 107.63,-254.88 117.33,-250.47 127.47,-248.16"/>
<polygon fill="#000000" fill-opacity="0.200000" stroke="#000000" stroke-width="2" stroke-opacity="0.200000" points="127.96,-250.2 133.47,-247.03 127.19,-246.08 127.96,-250.2"/>
</g>
<!-- pages/menus/new.js -->
<g id="node25" class="node">
<title>pages/menus/new.js</title>
<g id="a_node25"><a xlink:href="pages/menus/new.js" xlink:title="new.js">
<path fill="#ffffcc" stroke="black" d="M75.5,-672.89C75.5,-672.89 33.5,-672.89 33.5,-672.89 30.5,-672.89 27.5,-669.89 27.5,-666.89 27.5,-666.89 27.5,-660.89 27.5,-660.89 27.5,-657.89 30.5,-654.89 33.5,-654.89 33.5,-654.89 75.5,-654.89 75.5,-654.89 78.5,-654.89 81.5,-657.89 81.5,-660.89 81.5,-660.89 81.5,-666.89 81.5,-666.89 81.5,-669.89 78.5,-672.89 75.5,-672.89"/>
<text text-anchor="start" x="41.5" y="-661.69" font-family="Helvetica,sans-Serif" font-size="9.00">new.js</text>
</a>
</g>
</g>
<!-- pages/menus/new.js&#45;&gt;components/Menus/MenuNewCategory.js -->
<g id="edge24" class="edge">
<title>pages/menus/new.js&#45;&gt;components/Menus/MenuNewCategory.js</title>
<path fill="none" stroke="#000000" stroke-width="2" stroke-opacity="0.200000" d="M81.64,-659.45C86.08,-657.53 90.17,-654.79 93,-650.89 107.61,-630.74 85.14,-222.07 101,-202.89 104.88,-198.19 109.82,-194.73 115.28,-192.21"/>
<polygon fill="#000000" fill-opacity="0.200000" stroke="#000000" stroke-width="2" stroke-opacity="0.200000" points="116.09,-194.15 120.9,-189.99 114.55,-190.24 116.09,-194.15"/>
</g>
<!-- pages/menus/new.js&#45;&gt;components/Menus/MenuNewRestaurant.js -->
<g id="edge25" class="edge">
<title>pages/menus/new.js&#45;&gt;components/Menus/MenuNewRestaurant.js</title>
<path fill="none" stroke="#000000" stroke-width="2" stroke-opacity="0.200000" d="M81.63,-659.45C86.08,-657.53 90.17,-654.79 93,-650.89 106.65,-632.09 86.19,-250.78 101,-232.89 103.89,-229.39 107.37,-226.58 111.22,-224.33"/>
<polygon fill="#000000" fill-opacity="0.200000" stroke="#000000" stroke-width="2" stroke-opacity="0.200000" points="112.24,-226.17 116.66,-221.6 110.36,-222.41 112.24,-226.17"/>
</g>
<!-- pages/menus/search.js -->
<g id="node26" class="node">
<title>pages/menus/search.js</title>
<g id="a_node26"><a xlink:href="pages/menus/search.js" xlink:title="search.js">
<path fill="#ffffcc" stroke="black" d="M75.5,-732.89C75.5,-732.89 33.5,-732.89 33.5,-732.89 30.5,-732.89 27.5,-729.89 27.5,-726.89 27.5,-726.89 27.5,-720.89 27.5,-720.89 27.5,-717.89 30.5,-714.89 33.5,-714.89 33.5,-714.89 75.5,-714.89 75.5,-714.89 78.5,-714.89 81.5,-717.89 81.5,-720.89 81.5,-720.89 81.5,-726.89 81.5,-726.89 81.5,-729.89 78.5,-732.89 75.5,-732.89"/>
<text text-anchor="start" x="36" y="-721.69" font-family="Helvetica,sans-Serif" font-size="9.00">search.js</text>
</a>
</g>
</g>
<!-- pages/menus/search.js&#45;&gt;components/Dish/DishSearchFormGroup.js -->
<g id="edge26" class="edge">
<title>pages/menus/search.js&#45;&gt;components/Dish/DishSearchFormGroup.js</title>
<path fill="none" stroke="#000000" stroke-width="2" stroke-opacity="0.200000" d="M81.62,-717.98C86.07,-715.82 90.16,-712.89 93,-708.89 104.53,-692.65 89.14,-545.88 101,-529.89 107.72,-520.82 423.19,-413.96 527.16,-378.93"/>
<polygon fill="#000000" fill-opacity="0.200000" stroke="#000000" stroke-width="2" stroke-opacity="0.200000" points="528.1,-380.83 533.12,-376.92 526.76,-376.85 528.1,-380.83"/>
</g>
<!-- pages/menus/search.js&#45;&gt;components/Menus/MenuDisplay.js -->
<g id="edge27" class="edge">
<title>pages/menus/search.js&#45;&gt;components/Menus/MenuDisplay.js</title>
<path fill="none" stroke="#000000" stroke-width="2" stroke-opacity="0.200000" d="M81.71,-718.03C86.14,-715.88 90.21,-712.93 93,-708.89 107.08,-688.49 85.21,-281.98 101,-262.89 107.62,-254.88 117.33,-250.46 127.47,-248.15"/>
<polygon fill="#000000" fill-opacity="0.200000" stroke="#000000" stroke-width="2" stroke-opacity="0.200000" points="127.95,-250.2 133.46,-247.03 127.18,-246.07 127.95,-250.2"/>
</g>
</g>
</svg>
