<?xml version="1.0" encoding="UTF-8" standalone="no"?>
<!DOCTYPE svg PUBLIC "-//W3C//DTD SVG 1.1//EN"
 "http://www.w3.org/Graphics/SVG/1.1/DTD/svg11.dtd">
<!-- Generated by graphviz version 3.0.0 (20220226.1711)
 -->
<!-- Title: dependency&#45;cruiser output Pages: 1 -->
<svg width="681pt" height="426pt"
 viewBox="0.00 0.00 680.50 426.00" xmlns="http://www.w3.org/2000/svg" xmlns:xlink="http://www.w3.org/1999/xlink">
<g id="graph0" class="graph" transform="scale(1 1) rotate(0) translate(4 422)">
<title>dependency&#45;cruiser output</title>
<polygon fill="white" stroke="transparent" points="-4,4 -4,-422 676.5,-422 676.5,4 -4,4"/>
<g id="clust1" class="cluster">
<title>cluster_src</title>
<path fill="#ffffff" stroke="black" stroke-width="2" d="M20,-8C20,-8 652.5,-8 652.5,-8 658.5,-8 664.5,-14 664.5,-20 664.5,-20 664.5,-398 664.5,-398 664.5,-404 658.5,-410 652.5,-410 652.5,-410 20,-410 20,-410 14,-410 8,-404 8,-398 8,-398 8,-20 8,-20 8,-14 14,-8 20,-8"/>
<text text-anchor="middle" x="336.25" y="-398.8" font-family="Helvetica,sans-Serif" font-weight="bold" font-size="9.00">src</text>
</g>
<g id="clust2" class="cluster">
<title>cluster_src/Dishes</title>
<path fill="#ffffff" stroke="black" stroke-width="2" d="M357.5,-236C357.5,-236 644.5,-236 644.5,-236 650.5,-236 656.5,-242 656.5,-248 656.5,-248 656.5,-336 656.5,-336 656.5,-342 650.5,-348 644.5,-348 644.5,-348 357.5,-348 357.5,-348 351.5,-348 345.5,-342 345.5,-336 345.5,-336 345.5,-248 345.5,-248 345.5,-242 351.5,-236 357.5,-236"/>
<text text-anchor="middle" x="501" y="-336.8" font-family="Helvetica,sans-Serif" font-weight="bold" font-size="9.00">Dishes</text>
</g>
<g id="clust3" class="cluster">
<title>cluster_src/Menus</title>
<path fill="#ffffff" stroke="black" stroke-width="2" d="M106,-56C106,-56 566,-56 566,-56 572,-56 578,-62 578,-68 578,-68 578,-216 578,-216 578,-222 572,-228 566,-228 566,-228 106,-228 106,-228 100,-228 94,-222 94,-216 94,-216 94,-68 94,-68 94,-62 100,-56 106,-56"/>
<text text-anchor="middle" x="336" y="-216.8" font-family="Helvetica,sans-Serif" font-weight="bold" font-size="9.00">Menus</text>
</g>
<!-- src/App.js -->
<g id="node1" class="node">
<title>src/App.js</title>
<g id="a_node1"><a xlink:href="src/App.js" xlink:title="App.js">
<path fill="#ffffcc" stroke="black" d="M164.5,-384C164.5,-384 122.5,-384 122.5,-384 119.5,-384 116.5,-381 116.5,-378 116.5,-378 116.5,-372 116.5,-372 116.5,-369 119.5,-366 122.5,-366 122.5,-366 164.5,-366 164.5,-366 167.5,-366 170.5,-369 170.5,-372 170.5,-372 170.5,-378 170.5,-378 170.5,-381 167.5,-384 164.5,-384"/>
<text text-anchor="start" x="130.5" y="-372.8" font-family="Helvetica,sans-Serif" font-size="9.00">App.js</text>
</a>
</g>
</g>
<!-- src/GlobalFooter.js -->
<g id="node2" class="node">
<title>src/GlobalFooter.js</title>
<g id="a_node2"><a xlink:href="src/GlobalFooter.js" xlink:title="GlobalFooter.js">
<path fill="#ffffcc" stroke="black" d="M292,-384C292,-384 225,-384 225,-384 222,-384 219,-381 219,-378 219,-378 219,-372 219,-372 219,-369 222,-366 225,-366 225,-366 292,-366 292,-366 295,-366 298,-369 298,-372 298,-372 298,-378 298,-378 298,-381 295,-384 292,-384"/>
<text text-anchor="start" x="227" y="-372.8" font-family="Helvetica,sans-Serif" font-size="9.00">GlobalFooter.js</text>
</a>
</g>
</g>
<!-- src/App.js&#45;&gt;src/GlobalFooter.js -->
<g id="edge1" class="edge">
<title>src/App.js&#45;&gt;src/GlobalFooter.js</title>
<path fill="none" stroke="#000000" stroke-width="2" stroke-opacity="0.200000" d="M170.71,-375C183.15,-375 198.36,-375 212.56,-375"/>
<polygon fill="#000000" fill-opacity="0.200000" stroke="#000000" stroke-width="2" stroke-opacity="0.200000" points="212.57,-377.1 218.57,-375 212.57,-372.9 212.57,-377.1"/>
</g>
<!-- src/GlobalNav.js -->
<g id="node3" class="node">
<title>src/GlobalNav.js</title>
<g id="a_node3"><a xlink:href="src/GlobalNav.js" xlink:title="GlobalNav.js">
<path fill="#ffffcc" stroke="black" d="M287,-354C287,-354 230,-354 230,-354 227,-354 224,-351 224,-348 224,-348 224,-342 224,-342 224,-339 227,-336 230,-336 230,-336 287,-336 287,-336 290,-336 293,-339 293,-342 293,-342 293,-348 293,-348 293,-351 290,-354 287,-354"/>
<text text-anchor="start" x="232" y="-342.8" font-family="Helvetica,sans-Serif" font-size="9.00">GlobalNav.js</text>
</a>
</g>
</g>
<!-- src/App.js&#45;&gt;src/GlobalNav.js -->
<g id="edge2" class="edge">
<title>src/App.js&#45;&gt;src/GlobalNav.js</title>
<path fill="none" stroke="#000000" stroke-width="2" stroke-opacity="0.200000" d="M170.71,-368.04C184.64,-364.34 202.05,-359.72 217.62,-355.59"/>
<polygon fill="#000000" fill-opacity="0.200000" stroke="#000000" stroke-width="2" stroke-opacity="0.200000" points="218.45,-357.54 223.71,-353.97 217.37,-353.48 218.45,-357.54"/>
</g>
<!-- src/App.test.js -->
<g id="node4" class="node">
<title>src/App.test.js</title>
<g id="a_node4"><a xlink:href="src/App.test.js" xlink:title="App.test.js">
<path fill="#ffffcc" stroke="black" d="M74,-384C74,-384 27,-384 27,-384 24,-384 21,-381 21,-378 21,-378 21,-372 21,-372 21,-369 24,-366 27,-366 27,-366 74,-366 74,-366 77,-366 80,-369 80,-372 80,-372 80,-378 80,-378 80,-381 77,-384 74,-384"/>
<text text-anchor="start" x="29" y="-372.8" font-family="Helvetica,sans-Serif" font-size="9.00">App.test.js</text>
</a>
</g>
</g>
<!-- src/App.test.js&#45;&gt;src/App.js -->
<g id="edge3" class="edge">
<title>src/App.test.js&#45;&gt;src/App.js</title>
<path fill="none" stroke="#000000" stroke-width="2" stroke-opacity="0.200000" d="M80.29,-375C89.78,-375 100.38,-375 110.11,-375"/>
<polygon fill="#000000" fill-opacity="0.200000" stroke="#000000" stroke-width="2" stroke-opacity="0.200000" points="110.36,-377.1 116.36,-375 110.36,-372.9 110.36,-377.1"/>
</g>
<!-- src/Dishes/AllDishes.js -->
<g id="node5" class="node">
<title>src/Dishes/AllDishes.js</title>
<g id="a_node5"><a xlink:href="src/Dishes/AllDishes.js" xlink:title="AllDishes.js">
<path fill="#ffffcc" stroke="black" d="M421.5,-262C421.5,-262 368.5,-262 368.5,-262 365.5,-262 362.5,-259 362.5,-256 362.5,-256 362.5,-250 362.5,-250 362.5,-247 365.5,-244 368.5,-244 368.5,-244 421.5,-244 421.5,-244 424.5,-244 427.5,-247 427.5,-250 427.5,-250 427.5,-256 427.5,-256 427.5,-259 424.5,-262 421.5,-262"/>
<text text-anchor="start" x="370.5" y="-250.8" font-family="Helvetica,sans-Serif" font-size="9.00">AllDishes.js</text>
</a>
</g>
</g>
<!-- src/Dishes/DishDisplay.js -->
<g id="node6" class="node">
<title>src/Dishes/DishDisplay.js</title>
<g id="a_node6"><a xlink:href="src/Dishes/DishDisplay.js" xlink:title="DishDisplay.js">
<path fill="#ffffcc" stroke="black" d="M554,-262C554,-262 491,-262 491,-262 488,-262 485,-259 485,-256 485,-256 485,-250 485,-250 485,-247 488,-244 491,-244 491,-244 554,-244 554,-244 557,-244 560,-247 560,-250 560,-250 560,-256 560,-256 560,-259 557,-262 554,-262"/>
<text text-anchor="start" x="493" y="-250.8" font-family="Helvetica,sans-Serif" font-size="9.00">DishDisplay.js</text>
</a>
</g>
</g>
<!-- src/Dishes/AllDishes.js&#45;&gt;src/Dishes/DishDisplay.js -->
<g id="edge4" class="edge">
<title>src/Dishes/AllDishes.js&#45;&gt;src/Dishes/DishDisplay.js</title>
<path fill="none" stroke="#000000" stroke-width="2" stroke-opacity="0.200000" d="M427.67,-253C443.19,-253 462.11,-253 478.88,-253"/>
<polygon fill="#000000" fill-opacity="0.200000" stroke="#000000" stroke-width="2" stroke-opacity="0.200000" points="478.95,-255.1 484.95,-253 478.95,-250.9 478.95,-255.1"/>
</g>
<!-- src/Dishes/DishTile.js -->
<g id="node9" class="node">
<title>src/Dishes/DishTile.js</title>
<g id="a_node9"><a xlink:href="src/Dishes/DishTile.js" xlink:title="DishTile.js">
<path fill="#ffffcc" stroke="black" d="M642.5,-307C642.5,-307 595.5,-307 595.5,-307 592.5,-307 589.5,-304 589.5,-301 589.5,-301 589.5,-295 589.5,-295 589.5,-292 592.5,-289 595.5,-289 595.5,-289 642.5,-289 642.5,-289 645.5,-289 648.5,-292 648.5,-295 648.5,-295 648.5,-301 648.5,-301 648.5,-304 645.5,-307 642.5,-307"/>
<text text-anchor="start" x="597.5" y="-295.8" font-family="Helvetica,sans-Serif" font-size="9.00">DishTile.js</text>
</a>
</g>
</g>
<!-- src/Dishes/DishDisplay.js&#45;&gt;src/Dishes/DishTile.js -->
<g id="edge7" class="edge">
<title>src/Dishes/DishDisplay.js&#45;&gt;src/Dishes/DishTile.js</title>
<path fill="none" stroke="#000000" stroke-width="2" stroke-opacity="0.200000" d="M560.25,-258.43C566.66,-260.63 572.89,-263.7 578,-268 584.39,-273.38 579.94,-279.26 586,-285 586.1,-285.09 586.2,-285.18 586.3,-285.28"/>
<polygon fill="#000000" fill-opacity="0.200000" stroke="#000000" stroke-width="2" stroke-opacity="0.200000" points="585.14,-287.04 591.19,-288.99 587.68,-283.69 585.14,-287.04"/>
</g>
<!-- src/Dishes/Dish.js -->
<g id="node7" class="node">
<title>src/Dishes/Dish.js</title>
<g id="a_node7"><a xlink:href="src/Dishes/Dish.js" xlink:title="Dish.js">
<path fill="#ffffcc" stroke="black" d="M543.5,-292C543.5,-292 501.5,-292 501.5,-292 498.5,-292 495.5,-289 495.5,-286 495.5,-286 495.5,-280 495.5,-280 495.5,-277 498.5,-274 501.5,-274 501.5,-274 543.5,-274 543.5,-274 546.5,-274 549.5,-277 549.5,-280 549.5,-280 549.5,-286 549.5,-286 549.5,-289 546.5,-292 543.5,-292"/>
<text text-anchor="start" x="508.5" y="-280.8" font-family="Helvetica,sans-Serif" font-size="9.00">Dish.js</text>
</a>
</g>
</g>
<!-- src/NotFound.js -->
<g id="node8" class="node">
<title>src/NotFound.js</title>
<g id="a_node8"><a xlink:href="src/NotFound.js" xlink:title="NotFound.js">
<path fill="#ffffcc" stroke="black" d="M646,-70C646,-70 592,-70 592,-70 589,-70 586,-67 586,-64 586,-64 586,-58 586,-58 586,-55 589,-52 592,-52 592,-52 646,-52 646,-52 649,-52 652,-55 652,-58 652,-58 652,-64 652,-64 652,-67 649,-70 646,-70"/>
<text text-anchor="start" x="594" y="-58.8" font-family="Helvetica,sans-Serif" font-size="9.00">NotFound.js</text>
</a>
</g>
</g>
<!-- src/Dishes/Dish.js&#45;&gt;src/NotFound.js -->
<g id="edge5" class="edge">
<title>src/Dishes/Dish.js&#45;&gt;src/NotFound.js</title>
<path fill="none" stroke="#000000" stroke-width="2" stroke-opacity="0.200000" d="M549.59,-281.61C559.78,-279.74 570.74,-275.85 578,-268 579.66,-266.21 606.36,-123.48 615.19,-76.1"/>
<polygon fill="#000000" fill-opacity="0.200000" stroke="#000000" stroke-width="2" stroke-opacity="0.200000" points="617.28,-76.35 616.31,-70.07 613.15,-75.58 617.28,-76.35"/>
</g>
<!-- src/Dishes/Dish.js&#45;&gt;src/Dishes/DishTile.js -->
<g id="edge6" class="edge">
<title>src/Dishes/Dish.js&#45;&gt;src/Dishes/DishTile.js</title>
<path fill="none" stroke="#000000" stroke-width="2" stroke-opacity="0.200000" d="M549.57,-287.14C559.99,-288.79 572.14,-290.72 583.29,-292.49"/>
<polygon fill="#000000" fill-opacity="0.200000" stroke="#000000" stroke-width="2" stroke-opacity="0.200000" points="583.1,-294.59 589.36,-293.45 583.76,-290.44 583.1,-294.59"/>
</g>
<!-- src/Dishes/Dishes.js -->
<g id="node10" class="node">
<title>src/Dishes/Dishes.js</title>
<g id="a_node10"><a xlink:href="src/Dishes/Dishes.js" xlink:title="Dishes.js">
<path fill="#ffffcc" stroke="black" d="M416,-322C416,-322 374,-322 374,-322 371,-322 368,-319 368,-316 368,-316 368,-310 368,-310 368,-307 371,-304 374,-304 374,-304 416,-304 416,-304 419,-304 422,-307 422,-310 422,-310 422,-316 422,-316 422,-319 419,-322 416,-322"/>
<text text-anchor="start" x="376" y="-310.8" font-family="Helvetica,sans-Serif" font-size="9.00">Dishes.js</text>
</a>
</g>
</g>
<!-- src/Dishes/NewDishForm.js -->
<g id="node11" class="node">
<title>src/Dishes/NewDishForm.js</title>
<g id="a_node11"><a xlink:href="src/Dishes/NewDishForm.js" xlink:title="NewDishForm.js">
<path fill="#ffffcc" stroke="black" d="M558.5,-322C558.5,-322 486.5,-322 486.5,-322 483.5,-322 480.5,-319 480.5,-316 480.5,-316 480.5,-310 480.5,-310 480.5,-307 483.5,-304 486.5,-304 486.5,-304 558.5,-304 558.5,-304 561.5,-304 564.5,-307 564.5,-310 564.5,-310 564.5,-316 564.5,-316 564.5,-319 561.5,-322 558.5,-322"/>
<text text-anchor="start" x="488.5" y="-310.8" font-family="Helvetica,sans-Serif" font-size="9.00">NewDishForm.js</text>
</a>
</g>
</g>
<!-- src/Dishes/NewDishForm.js&#45;&gt;src/Dishes/DishTile.js -->
<g id="edge8" class="edge">
<title>src/Dishes/NewDishForm.js&#45;&gt;src/Dishes/DishTile.js</title>
<path fill="none" stroke="#000000" stroke-width="2" stroke-opacity="0.200000" d="M564.67,-306.46C570.94,-305.47 577.35,-304.45 583.46,-303.48"/>
<polygon fill="#000000" fill-opacity="0.200000" stroke="#000000" stroke-width="2" stroke-opacity="0.200000" points="583.85,-305.55 589.45,-302.53 583.19,-301.4 583.85,-305.55"/>
</g>
<!-- src/Dishes/SearchDishes.js -->
<g id="node12" class="node">
<title>src/Dishes/SearchDishes.js</title>
<g id="a_node12"><a xlink:href="src/Dishes/SearchDishes.js" xlink:title="SearchDishes.js">
<path fill="#ffffcc" stroke="black" d="M430.5,-292C430.5,-292 359.5,-292 359.5,-292 356.5,-292 353.5,-289 353.5,-286 353.5,-286 353.5,-280 353.5,-280 353.5,-277 356.5,-274 359.5,-274 359.5,-274 430.5,-274 430.5,-274 433.5,-274 436.5,-277 436.5,-280 436.5,-280 436.5,-286 436.5,-286 436.5,-289 433.5,-292 430.5,-292"/>
<text text-anchor="start" x="361.5" y="-280.8" font-family="Helvetica,sans-Serif" font-size="9.00">SearchDishes.js</text>
</a>
</g>
</g>
<!-- src/Dishes/SearchDishes.js&#45;&gt;src/Dishes/DishDisplay.js -->
<g id="edge9" class="edge">
<title>src/Dishes/SearchDishes.js&#45;&gt;src/Dishes/DishDisplay.js</title>
<path fill="none" stroke="#000000" stroke-width="2" stroke-opacity="0.200000" d="M436.52,-273.95C444.95,-272.02 453.77,-269.97 462,-268 467.91,-266.58 474.13,-265.06 480.24,-263.53"/>
<polygon fill="#000000" fill-opacity="0.200000" stroke="#000000" stroke-width="2" stroke-opacity="0.200000" points="480.98,-265.51 486.3,-262.02 479.97,-261.44 480.98,-265.51"/>
</g>
<!-- src/Home.js -->
<g id="node13" class="node">
<title>src/Home.js</title>
<g id="a_node13"><a xlink:href="src/Home.js" xlink:title="Home.js">
<path fill="#ffffcc" stroke="black" d="M164.5,-324C164.5,-324 122.5,-324 122.5,-324 119.5,-324 116.5,-321 116.5,-318 116.5,-318 116.5,-312 116.5,-312 116.5,-309 119.5,-306 122.5,-306 122.5,-306 164.5,-306 164.5,-306 167.5,-306 170.5,-309 170.5,-312 170.5,-312 170.5,-318 170.5,-318 170.5,-321 167.5,-324 164.5,-324"/>
<text text-anchor="start" x="126.5" y="-312.8" font-family="Helvetica,sans-Serif" font-size="9.00">Home.js</text>
</a>
</g>
</g>
<!-- src/Home.js&#45;&gt;src/Dishes/DishTile.js -->
<g id="edge10" class="edge">
<title>src/Home.js&#45;&gt;src/Dishes/DishTile.js</title>
<path fill="none" stroke="#000000" stroke-width="2" stroke-opacity="0.200000" d="M170.56,-314.4C212.29,-313.9 291.76,-315.04 315,-330 324.87,-336.36 317.86,-347.08 328,-353 379.44,-383.01 402.78,-359.31 462,-353 514.44,-347.41 530.02,-349.88 578,-328 587.24,-323.79 596.39,-317.16 603.6,-311.2"/>
<polygon fill="#000000" fill-opacity="0.200000" stroke="#000000" stroke-width="2" stroke-opacity="0.200000" points="605.06,-312.72 608.26,-307.22 602.33,-309.52 605.06,-312.72"/>
</g>
<!-- src/Menus/AllMenus.js -->
<g id="node14" class="node">
<title>src/Menus/AllMenus.js</title>
<g id="a_node14"><a xlink:href="src/Menus/AllMenus.js" xlink:title="AllMenus.js">
<path fill="#ffffcc" stroke="black" d="M169.5,-172C169.5,-172 117.5,-172 117.5,-172 114.5,-172 111.5,-169 111.5,-166 111.5,-166 111.5,-160 111.5,-160 111.5,-157 114.5,-154 117.5,-154 117.5,-154 169.5,-154 169.5,-154 172.5,-154 175.5,-157 175.5,-160 175.5,-160 175.5,-166 175.5,-166 175.5,-169 172.5,-172 169.5,-172"/>
<text text-anchor="start" x="119.5" y="-160.8" font-family="Helvetica,sans-Serif" font-size="9.00">AllMenus.js</text>
</a>
</g>
</g>
<!-- src/Menus/MenuDisplay.js -->
<g id="node15" class="node">
<title>src/Menus/MenuDisplay.js</title>
<g id="a_node15"><a xlink:href="src/Menus/MenuDisplay.js" xlink:title="MenuDisplay.js">
<path fill="#ffffcc" stroke="black" d="M292.5,-196C292.5,-196 224.5,-196 224.5,-196 221.5,-196 218.5,-193 218.5,-190 218.5,-190 218.5,-184 218.5,-184 218.5,-181 221.5,-178 224.5,-178 224.5,-178 292.5,-178 292.5,-178 295.5,-178 298.5,-181 298.5,-184 298.5,-184 298.5,-190 298.5,-190 298.5,-193 295.5,-196 292.5,-196"/>
<text text-anchor="start" x="226.5" y="-184.8" font-family="Helvetica,sans-Serif" font-size="9.00">MenuDisplay.js</text>
</a>
</g>
</g>
<!-- src/Menus/AllMenus.js&#45;&gt;src/Menus/MenuDisplay.js -->
<g id="edge11" class="edge">
<title>src/Menus/AllMenus.js&#45;&gt;src/Menus/MenuDisplay.js</title>
<path fill="none" stroke="#000000" stroke-width="2" stroke-opacity="0.200000" d="M175.68,-169.62C187.02,-172.03 200.07,-174.8 212.38,-177.42"/>
<polygon fill="#000000" fill-opacity="0.200000" stroke="#000000" stroke-width="2" stroke-opacity="0.200000" points="212.04,-179.49 218.35,-178.68 212.92,-175.38 212.04,-179.49"/>
</g>
<!-- src/Menus/MenuName.js -->
<g id="node18" class="node">
<title>src/Menus/MenuName.js</title>
<g id="a_node18"><a xlink:href="src/Menus/MenuName.js" xlink:title="MenuName.js">
<path fill="#ffffcc" stroke="black" d="M426,-182C426,-182 364,-182 364,-182 361,-182 358,-179 358,-176 358,-176 358,-170 358,-170 358,-167 361,-164 364,-164 364,-164 426,-164 426,-164 429,-164 432,-167 432,-170 432,-170 432,-176 432,-176 432,-179 429,-182 426,-182"/>
<text text-anchor="start" x="366" y="-170.8" font-family="Helvetica,sans-Serif" font-size="9.00">MenuName.js</text>
</a>
</g>
</g>
<!-- src/Menus/MenuDisplay.js&#45;&gt;src/Menus/MenuName.js -->
<g id="edge18" class="edge">
<title>src/Menus/MenuDisplay.js&#45;&gt;src/Menus/MenuName.js</title>
<path fill="none" stroke="#000000" stroke-width="2" stroke-opacity="0.200000" d="M298.76,-182.91C315.34,-181.19 334.67,-179.18 351.57,-177.42"/>
<polygon fill="#000000" fill-opacity="0.200000" stroke="#000000" stroke-width="2" stroke-opacity="0.200000" points="351.93,-179.49 357.68,-176.78 351.49,-175.31 351.93,-179.49"/>
</g>
<!-- src/Menus/Menu.js -->
<g id="node16" class="node">
<title>src/Menus/Menu.js</title>
<g id="a_node16"><a xlink:href="src/Menus/Menu.js" xlink:title="Menu.js">
<path fill="#ffffcc" stroke="black" d="M164.5,-82C164.5,-82 122.5,-82 122.5,-82 119.5,-82 116.5,-79 116.5,-76 116.5,-76 116.5,-70 116.5,-70 116.5,-67 119.5,-64 122.5,-64 122.5,-64 164.5,-64 164.5,-64 167.5,-64 170.5,-67 170.5,-70 170.5,-70 170.5,-76 170.5,-76 170.5,-79 167.5,-82 164.5,-82"/>
<text text-anchor="start" x="127" y="-70.8" font-family="Helvetica,sans-Serif" font-size="9.00">Menu.js</text>
</a>
</g>
</g>
<!-- src/Menus/Menu.js&#45;&gt;src/NotFound.js -->
<g id="edge12" class="edge">
<title>src/Menus/Menu.js&#45;&gt;src/NotFound.js</title>
<path fill="none" stroke="#000000" stroke-width="2" stroke-opacity="0.200000" d="M170.52,-70.35C180.37,-69.45 191.69,-68.53 202,-68 340.82,-60.81 506.01,-60.47 579.48,-60.75"/>
<polygon fill="#000000" fill-opacity="0.200000" stroke="#000000" stroke-width="2" stroke-opacity="0.200000" points="579.87,-62.85 585.87,-60.78 579.88,-58.65 579.87,-62.85"/>
</g>
<!-- src/Menus/MenuContent.js -->
<g id="node17" class="node">
<title>src/Menus/MenuContent.js</title>
<g id="a_node17"><a xlink:href="src/Menus/MenuContent.js" xlink:title="MenuContent.js">
<path fill="#ffffcc" stroke="black" d="M293,-92C293,-92 224,-92 224,-92 221,-92 218,-89 218,-86 218,-86 218,-80 218,-80 218,-77 221,-74 224,-74 224,-74 293,-74 293,-74 296,-74 299,-77 299,-80 299,-80 299,-86 299,-86 299,-89 296,-92 293,-92"/>
<text text-anchor="start" x="226" y="-80.8" font-family="Helvetica,sans-Serif" font-size="9.00">MenuContent.js</text>
</a>
</g>
</g>
<!-- src/Menus/Menu.js&#45;&gt;src/Menus/MenuContent.js -->
<g id="edge13" class="edge">
<title>src/Menus/Menu.js&#45;&gt;src/Menus/MenuContent.js</title>
<path fill="none" stroke="#000000" stroke-width="2" stroke-opacity="0.200000" d="M170.71,-75.32C182.81,-76.39 197.54,-77.69 211.4,-78.92"/>
<polygon fill="#000000" fill-opacity="0.200000" stroke="#000000" stroke-width="2" stroke-opacity="0.200000" points="211.54,-81.04 217.7,-79.48 211.91,-76.86 211.54,-81.04"/>
</g>
<!-- src/Menus/Menu.js&#45;&gt;src/Menus/MenuName.js -->
<g id="edge14" class="edge">
<title>src/Menus/Menu.js&#45;&gt;src/Menus/MenuName.js</title>
<path fill="none" stroke="#000000" stroke-width="2" stroke-opacity="0.200000" d="M170.77,-76.9C177.57,-79.12 184.3,-82.58 189,-88 209.74,-111.9 178.47,-136.84 202,-158 212.87,-167.78 298.5,-171.2 351.67,-172.38"/>
<polygon fill="#000000" fill-opacity="0.200000" stroke="#000000" stroke-width="2" stroke-opacity="0.200000" points="351.94,-174.49 357.98,-172.51 352.03,-170.29 351.94,-174.49"/>
</g>
<!-- src/Menus/MenuCategory.js -->
<g id="node19" class="node">
<title>src/Menus/MenuCategory.js</title>
<g id="a_node19"><a xlink:href="src/Menus/MenuCategory.js" xlink:title="MenuCategory.js">
<path fill="#ffffcc" stroke="black" d="M432,-122C432,-122 358,-122 358,-122 355,-122 352,-119 352,-116 352,-116 352,-110 352,-110 352,-107 355,-104 358,-104 358,-104 432,-104 432,-104 435,-104 438,-107 438,-110 438,-110 438,-116 438,-116 438,-119 435,-122 432,-122"/>
<text text-anchor="start" x="360" y="-110.8" font-family="Helvetica,sans-Serif" font-size="9.00">MenuCategory.js</text>
</a>
</g>
</g>
<!-- src/Menus/MenuContent.js&#45;&gt;src/Menus/MenuCategory.js -->
<g id="edge17" class="edge">
<title>src/Menus/MenuContent.js&#45;&gt;src/Menus/MenuCategory.js</title>
<path fill="none" stroke="#000000" stroke-width="2" stroke-opacity="0.200000" d="M299.13,-91.84C314.18,-95.2 331.46,-99.05 347.12,-102.54"/>
<polygon fill="#000000" fill-opacity="0.200000" stroke="#000000" stroke-width="2" stroke-opacity="0.200000" points="346.94,-104.66 353.26,-103.91 347.86,-100.56 346.94,-104.66"/>
</g>
<!-- src/Menus/MenuCategory.js&#45;&gt;src/Dishes/DishDisplay.js -->
<g id="edge15" class="edge">
<title>src/Menus/MenuCategory.js&#45;&gt;src/Dishes/DishDisplay.js</title>
<path fill="none" stroke="#000000" stroke-width="2" stroke-opacity="0.200000" d="M438.08,-114.73C447.09,-117.06 455.77,-121.12 462,-128 492.99,-162.18 447.92,-193.64 475,-231 477.8,-234.86 481.46,-238.07 485.49,-240.73"/>
<polygon fill="#000000" fill-opacity="0.200000" stroke="#000000" stroke-width="2" stroke-opacity="0.200000" points="484.53,-242.6 490.77,-243.82 486.65,-238.98 484.53,-242.6"/>
</g>
<!-- src/Menus/MenuCategoryForm.js -->
<g id="node20" class="node">
<title>src/Menus/MenuCategoryForm.js</title>
<g id="a_node20"><a xlink:href="src/Menus/MenuCategoryForm.js" xlink:title="MenuCategoryForm.js">
<path fill="#ffffcc" stroke="black" d="M442.5,-92C442.5,-92 347.5,-92 347.5,-92 344.5,-92 341.5,-89 341.5,-86 341.5,-86 341.5,-80 341.5,-80 341.5,-77 344.5,-74 347.5,-74 347.5,-74 442.5,-74 442.5,-74 445.5,-74 448.5,-77 448.5,-80 448.5,-80 448.5,-86 448.5,-86 448.5,-89 445.5,-92 442.5,-92"/>
<text text-anchor="start" x="349.5" y="-80.8" font-family="Helvetica,sans-Serif" font-size="9.00">MenuCategoryForm.js</text>
</a>
</g>
</g>
<!-- src/Menus/MenuItemSearch.js -->
<g id="node21" class="node">
<title>src/Menus/MenuItemSearch.js</title>
<g id="a_node21"><a xlink:href="src/Menus/MenuItemSearch.js" xlink:title="MenuItemSearch.js">
<path fill="#ffffcc" stroke="black" d="M564,-92C564,-92 481,-92 481,-92 478,-92 475,-89 475,-86 475,-86 475,-80 475,-80 475,-77 478,-74 481,-74 481,-74 564,-74 564,-74 567,-74 570,-77 570,-80 570,-80 570,-86 570,-86 570,-89 567,-92 564,-92"/>
<text text-anchor="start" x="483" y="-80.8" font-family="Helvetica,sans-Serif" font-size="9.00">MenuItemSearch.js</text>
</a>
</g>
</g>
<!-- src/Menus/MenuCategoryForm.js&#45;&gt;src/Menus/MenuItemSearch.js -->
<g id="edge16" class="edge">
<title>src/Menus/MenuCategoryForm.js&#45;&gt;src/Menus/MenuItemSearch.js</title>
<path fill="none" stroke="#000000" stroke-width="2" stroke-opacity="0.200000" d="M448.86,-83C455.29,-83 461.86,-83 468.3,-83"/>
<polygon fill="#000000" fill-opacity="0.200000" stroke="#000000" stroke-width="2" stroke-opacity="0.200000" points="468.68,-85.1 474.68,-83 468.68,-80.9 468.68,-85.1"/>
</g>
<!-- src/Menus/MenuNewCategory.js -->
<g id="node22" class="node">
<title>src/Menus/MenuNewCategory.js</title>
<g id="a_node22"><a xlink:href="src/Menus/MenuNewCategory.js" xlink:title="MenuNewCategory.js">
<path fill="#ffffcc" stroke="black" d="M305,-122C305,-122 212,-122 212,-122 209,-122 206,-119 206,-116 206,-116 206,-110 206,-110 206,-107 209,-104 212,-104 212,-104 305,-104 305,-104 308,-104 311,-107 311,-110 311,-110 311,-116 311,-116 311,-119 308,-122 305,-122"/>
<text text-anchor="start" x="214" y="-110.8" font-family="Helvetica,sans-Serif" font-size="9.00">MenuNewCategory.js</text>
</a>
</g>
</g>
<!-- src/Menus/MenuNewCategory.js&#45;&gt;src/Menus/MenuCategory.js -->
<g id="edge19" class="edge">
<title>src/Menus/MenuNewCategory.js&#45;&gt;src/Menus/MenuCategory.js</title>
<path fill="none" stroke="#000000" stroke-width="2" stroke-opacity="0.200000" d="M311.12,-113C322.49,-113 334.5,-113 345.74,-113"/>
<polygon fill="#000000" fill-opacity="0.200000" stroke="#000000" stroke-width="2" stroke-opacity="0.200000" points="345.89,-115.1 351.89,-113 345.89,-110.9 345.89,-115.1"/>
</g>
<!-- src/Menus/MenuNewCategory.js&#45;&gt;src/Menus/MenuCategoryForm.js -->
<g id="edge20" class="edge">
<title>src/Menus/MenuNewCategory.js&#45;&gt;src/Menus/MenuCategoryForm.js</title>
<path fill="none" stroke="#000000" stroke-width="2" stroke-opacity="0.200000" d="M299.85,-104C314.75,-100.68 331.74,-96.89 347.16,-93.45"/>
<polygon fill="#000000" fill-opacity="0.200000" stroke="#000000" stroke-width="2" stroke-opacity="0.200000" points="347.81,-95.45 353.21,-92.1 346.9,-91.35 347.81,-95.45"/>
</g>
<!-- src/Menus/MenuNewRestaurant.js -->
<g id="node23" class="node">
<title>src/Menus/MenuNewRestaurant.js</title>
<g id="a_node23"><a xlink:href="src/Menus/MenuNewRestaurant.js" xlink:title="MenuNewRestaurant.js">
<path fill="#ffffcc" stroke="black" d="M309,-152C309,-152 208,-152 208,-152 205,-152 202,-149 202,-146 202,-146 202,-140 202,-140 202,-137 205,-134 208,-134 208,-134 309,-134 309,-134 312,-134 315,-137 315,-140 315,-140 315,-146 315,-146 315,-149 312,-152 309,-152"/>
<text text-anchor="start" x="210" y="-140.8" font-family="Helvetica,sans-Serif" font-size="9.00">MenuNewRestaurant.js</text>
</a>
</g>
</g>
<!-- src/Menus/MenuNewRestaurant.js&#45;&gt;src/Menus/MenuName.js -->
<g id="edge21" class="edge">
<title>src/Menus/MenuNewRestaurant.js&#45;&gt;src/Menus/MenuName.js</title>
<path fill="none" stroke="#000000" stroke-width="2" stroke-opacity="0.200000" d="M299.85,-152C316.26,-155.66 335.21,-159.89 351.8,-163.59"/>
<polygon fill="#000000" fill-opacity="0.200000" stroke="#000000" stroke-width="2" stroke-opacity="0.200000" points="351.48,-165.67 357.79,-164.92 352.39,-161.57 351.48,-165.67"/>
</g>
<!-- src/Menus/MenuNewRestaurantForm.js -->
<g id="node24" class="node">
<title>src/Menus/MenuNewRestaurantForm.js</title>
<g id="a_node24"><a xlink:href="src/Menus/MenuNewRestaurantForm.js" xlink:title="MenuNewRestaurantForm.js">
<path fill="#ffffcc" stroke="black" d="M456,-152C456,-152 334,-152 334,-152 331,-152 328,-149 328,-146 328,-146 328,-140 328,-140 328,-137 331,-134 334,-134 334,-134 456,-134 456,-134 459,-134 462,-137 462,-140 462,-140 462,-146 462,-146 462,-149 459,-152 456,-152"/>
<text text-anchor="start" x="336" y="-140.8" font-family="Helvetica,sans-Serif" font-size="9.00">MenuNewRestaurantForm.js</text>
</a>
</g>
</g>
<!-- src/Menus/MenuNewRestaurant.js&#45;&gt;src/Menus/MenuNewRestaurantForm.js -->
<g id="edge22" class="edge">
<title>src/Menus/MenuNewRestaurant.js&#45;&gt;src/Menus/MenuNewRestaurantForm.js</title>
<path fill="none" stroke="#000000" stroke-width="2" stroke-opacity="0.200000" d="M315.37,-143C317.39,-143 319.43,-143 321.47,-143"/>
<polygon fill="#000000" fill-opacity="0.200000" stroke="#000000" stroke-width="2" stroke-opacity="0.200000" points="321.61,-145.1 327.61,-143 321.61,-140.9 321.61,-145.1"/>
</g>
<!-- src/Menus/Menus.js -->
<g id="node25" class="node">
<title>src/Menus/Menus.js</title>
<g id="a_node25"><a xlink:href="src/Menus/Menus.js" xlink:title="Menus.js">
<path fill="#ffffcc" stroke="black" d="M164.5,-142C164.5,-142 122.5,-142 122.5,-142 119.5,-142 116.5,-139 116.5,-136 116.5,-136 116.5,-130 116.5,-130 116.5,-127 119.5,-124 122.5,-124 122.5,-124 164.5,-124 164.5,-124 167.5,-124 170.5,-127 170.5,-130 170.5,-130 170.5,-136 170.5,-136 170.5,-139 167.5,-142 164.5,-142"/>
<text text-anchor="start" x="125" y="-130.8" font-family="Helvetica,sans-Serif" font-size="9.00">Menus.js</text>
</a>
</g>
</g>
<!-- src/Menus/NewMenu.js -->
<g id="node26" class="node">
<title>src/Menus/NewMenu.js</title>
<g id="a_node26"><a xlink:href="src/Menus/NewMenu.js" xlink:title="NewMenu.js">
<path fill="#ffffcc" stroke="black" d="M171.5,-112C171.5,-112 115.5,-112 115.5,-112 112.5,-112 109.5,-109 109.5,-106 109.5,-106 109.5,-100 109.5,-100 109.5,-97 112.5,-94 115.5,-94 115.5,-94 171.5,-94 171.5,-94 174.5,-94 177.5,-97 177.5,-100 177.5,-100 177.5,-106 177.5,-106 177.5,-109 174.5,-112 171.5,-112"/>
<text text-anchor="start" x="117.5" y="-100.8" font-family="Helvetica,sans-Serif" font-size="9.00">NewMenu.js</text>
</a>
</g>
</g>
<!-- src/Menus/NewMenu.js&#45;&gt;src/Menus/MenuNewCategory.js -->
<g id="edge23" class="edge">
<title>src/Menus/NewMenu.js&#45;&gt;src/Menus/MenuNewCategory.js</title>
<path fill="none" stroke="#000000" stroke-width="2" stroke-opacity="0.200000" d="M177.79,-105.95C184.61,-106.55 191.97,-107.2 199.37,-107.86"/>
<polygon fill="#000000" fill-opacity="0.200000" stroke="#000000" stroke-width="2" stroke-opacity="0.200000" points="199.42,-109.97 205.58,-108.41 199.79,-105.78 199.42,-109.97"/>
</g>
<!-- src/Menus/NewMenu.js&#45;&gt;src/Menus/MenuNewRestaurant.js -->
<g id="edge24" class="edge">
<title>src/Menus/NewMenu.js&#45;&gt;src/Menus/MenuNewRestaurant.js</title>
<path fill="none" stroke="#000000" stroke-width="2" stroke-opacity="0.200000" d="M175.7,-112.04C180.26,-113.78 184.83,-115.77 189,-118 195.43,-121.43 195.47,-124.76 202,-128 204.91,-129.44 207.97,-130.76 211.1,-131.96"/>
<polygon fill="#000000" fill-opacity="0.200000" stroke="#000000" stroke-width="2" stroke-opacity="0.200000" points="210.44,-133.95 216.8,-133.99 211.86,-130 210.44,-133.95"/>
</g>
<!-- src/Menus/SearchMenus.js -->
<g id="node27" class="node">
<title>src/Menus/SearchMenus.js</title>
<g id="a_node27"><a xlink:href="src/Menus/SearchMenus.js" xlink:title="SearchMenus.js">
<path fill="#ffffcc" stroke="black" d="M179,-202C179,-202 108,-202 108,-202 105,-202 102,-199 102,-196 102,-196 102,-190 102,-190 102,-187 105,-184 108,-184 108,-184 179,-184 179,-184 182,-184 185,-187 185,-190 185,-190 185,-196 185,-196 185,-199 182,-202 179,-202"/>
<text text-anchor="start" x="110" y="-190.8" font-family="Helvetica,sans-Serif" font-size="9.00">SearchMenus.js</text>
</a>
</g>
</g>
<!-- src/Menus/SearchMenus.js&#45;&gt;src/Menus/MenuDisplay.js -->
<g id="edge25" class="edge">
<title>src/Menus/SearchMenus.js&#45;&gt;src/Menus/MenuDisplay.js</title>
<path fill="none" stroke="#000000" stroke-width="2" stroke-opacity="0.200000" d="M185.3,-190.83C194.03,-190.37 203.3,-189.88 212.19,-189.41"/>
<polygon fill="#000000" fill-opacity="0.200000" stroke="#000000" stroke-width="2" stroke-opacity="0.200000" points="212.4,-191.5 218.28,-189.08 212.17,-187.3 212.4,-191.5"/>
</g>
<!-- src/index.css -->
<g id="node28" class="node">
<title>src/index.css</title>
<g id="a_node28"><a xlink:href="src/index.css" xlink:title="index.css">
<path fill="#ffffcc" stroke="black" d="M165,-354C165,-354 122,-354 122,-354 119,-354 116,-351 116,-348 116,-348 116,-342 116,-342 116,-339 119,-336 122,-336 122,-336 165,-336 165,-336 168,-336 171,-339 171,-342 171,-342 171,-348 171,-348 171,-351 168,-354 165,-354"/>
<text text-anchor="start" x="124" y="-342.8" font-family="Helvetica,sans-Serif" font-size="9.00">index.css</text>
</a>
</g>
</g>
<!-- src/index.js -->
<g id="node29" class="node">
<title>src/index.js</title>
<g id="a_node29"><a xlink:href="src/index.js" xlink:title="index.js">
<path fill="#ffffcc" stroke="black" d="M71.5,-246C71.5,-246 29.5,-246 29.5,-246 26.5,-246 23.5,-243 23.5,-240 23.5,-240 23.5,-234 23.5,-234 23.5,-231 26.5,-228 29.5,-228 29.5,-228 71.5,-228 71.5,-228 74.5,-228 77.5,-231 77.5,-234 77.5,-234 77.5,-240 77.5,-240 77.5,-243 74.5,-246 71.5,-246"/>
<text text-anchor="start" x="34.5" y="-234.8" font-family="Helvetica,sans-Serif" font-size="9.00">index.js</text>
</a>
</g>
</g>
<!-- src/index.js&#45;&gt;src/App.js -->
<g id="edge26" class="edge">
<title>src/index.js&#45;&gt;src/App.js</title>
<path fill="none" stroke="#000000" stroke-width="2" stroke-opacity="0.200000" d="M51.95,-246.2C53.56,-268.87 60.88,-327.95 94,-360 98.56,-364.41 104.39,-367.53 110.42,-369.73"/>
<polygon fill="#000000" fill-opacity="0.200000" stroke="#000000" stroke-width="2" stroke-opacity="0.200000" points="110.12,-371.84 116.47,-371.64 111.38,-367.83 110.12,-371.84"/>
</g>
<!-- src/index.js&#45;&gt;src/Dishes/AllDishes.js -->
<g id="edge27" class="edge">
<title>src/index.js&#45;&gt;src/Dishes/AllDishes.js</title>
<path fill="none" stroke="#000000" stroke-width="2" stroke-opacity="0.200000" d="M77.7,-237.67C125.08,-238.94 228.16,-242.06 315,-247 328.45,-247.77 343.18,-248.82 356.23,-249.84"/>
<polygon fill="#000000" fill-opacity="0.200000" stroke="#000000" stroke-width="2" stroke-opacity="0.200000" points="356.35,-251.95 362.5,-250.33 356.68,-247.77 356.35,-251.95"/>
</g>
<!-- src/index.js&#45;&gt;src/Dishes/Dish.js -->
<g id="edge28" class="edge">
<title>src/index.js&#45;&gt;src/Dishes/Dish.js</title>
<path fill="none" stroke="#000000" stroke-width="2" stroke-opacity="0.200000" d="M67.21,-246.02C75.05,-250.19 84.8,-254.89 94,-258 117.7,-266 295.19,-285.72 315,-301 325.54,-309.14 316.72,-320.91 328,-328 353.21,-343.84 437.11,-344.34 462,-328 474.15,-320.02 464.24,-307.77 475,-298 479.15,-294.23 484.26,-291.41 489.55,-289.3"/>
<polygon fill="#000000" fill-opacity="0.200000" stroke="#000000" stroke-width="2" stroke-opacity="0.200000" points="490.36,-291.24 495.33,-287.27 488.97,-287.27 490.36,-291.24"/>
</g>
<!-- src/index.js&#45;&gt;src/NotFound.js -->
<g id="edge39" class="edge">
<title>src/index.js&#45;&gt;src/NotFound.js</title>
<path fill="none" stroke="#000000" stroke-width="2" stroke-opacity="0.200000" d="M55.07,-227.8C61.97,-209.61 77.18,-167.62 85,-131 88.65,-113.94 81.19,-64.85 94,-53 120.69,-28.32 221.14,-47 257.5,-47 257.5,-47 257.5,-47 396,-47 476.93,-47 497.6,-43.7 578,-53 578.47,-53.05 578.95,-53.11 579.43,-53.17"/>
<polygon fill="#000000" fill-opacity="0.200000" stroke="#000000" stroke-width="2" stroke-opacity="0.200000" points="579.52,-55.31 585.76,-54.08 580.12,-51.15 579.52,-55.31"/>
</g>
<!-- src/index.js&#45;&gt;src/Dishes/Dishes.js -->
<g id="edge29" class="edge">
<title>src/index.js&#45;&gt;src/Dishes/Dishes.js</title>
<path fill="none" stroke="#000000" stroke-width="2" stroke-opacity="0.200000" d="M77.88,-245.07C83.19,-246.51 88.75,-247.91 94,-249 118.26,-254.05 293.91,-265.99 315,-279 323.71,-284.37 319.54,-292.25 328,-298 337.84,-304.69 350.22,-308.43 361.59,-310.52"/>
<polygon fill="#000000" fill-opacity="0.200000" stroke="#000000" stroke-width="2" stroke-opacity="0.200000" points="361.53,-312.63 367.78,-311.51 362.19,-308.49 361.53,-312.63"/>
</g>
<!-- src/index.js&#45;&gt;src/Dishes/NewDishForm.js -->
<g id="edge30" class="edge">
<title>src/index.js&#45;&gt;src/Dishes/NewDishForm.js</title>
<path fill="none" stroke="#000000" stroke-width="2" stroke-opacity="0.200000" d="M61.17,-246.25C69.3,-253.52 81.56,-263.33 94,-269 138.66,-289.35 153.79,-282.82 202,-292 252.03,-301.53 274.28,-280.41 315,-311 325.65,-319 316.72,-330.91 328,-338 353.21,-353.84 434.27,-348.84 462,-338 469.32,-335.14 468.13,-329.83 475,-326 475.91,-325.49 476.83,-325.01 477.78,-324.54"/>
<polygon fill="#000000" fill-opacity="0.200000" stroke="#000000" stroke-width="2" stroke-opacity="0.200000" points="478.72,-326.42 483.34,-322.04 477,-322.58 478.72,-326.42"/>
</g>
<!-- src/index.js&#45;&gt;src/Dishes/SearchDishes.js -->
<g id="edge31" class="edge">
<title>src/index.js&#45;&gt;src/Dishes/SearchDishes.js</title>
<path fill="none" stroke="#000000" stroke-width="2" stroke-opacity="0.200000" d="M77.54,-240.92C82.97,-241.67 88.67,-242.41 94,-243 142.97,-248.45 267.75,-247.02 315,-261 321.29,-262.86 321.86,-265.7 328,-268 334.15,-270.31 340.76,-272.32 347.34,-274.06"/>
<polygon fill="#000000" fill-opacity="0.200000" stroke="#000000" stroke-width="2" stroke-opacity="0.200000" points="347.02,-276.15 353.35,-275.58 348.05,-272.07 347.02,-276.15"/>
</g>
<!-- src/index.js&#45;&gt;src/Home.js -->
<g id="edge32" class="edge">
<title>src/index.js&#45;&gt;src/Home.js</title>
<path fill="none" stroke="#000000" stroke-width="2" stroke-opacity="0.200000" d="M55.69,-246.02C62.17,-259.03 75.78,-283 94,-297 98.91,-300.77 104.7,-303.82 110.54,-306.26"/>
<polygon fill="#000000" fill-opacity="0.200000" stroke="#000000" stroke-width="2" stroke-opacity="0.200000" points="110,-308.3 116.36,-308.5 111.51,-304.38 110,-308.3"/>
</g>
<!-- src/index.js&#45;&gt;src/Menus/AllMenus.js -->
<g id="edge34" class="edge">
<title>src/index.js&#45;&gt;src/Menus/AllMenus.js</title>
<path fill="none" stroke="#000000" stroke-width="2" stroke-opacity="0.200000" d="M55.63,-227.99C62.03,-215.04 75.55,-191.26 94,-178 97.54,-175.45 101.53,-173.33 105.65,-171.56"/>
<polygon fill="#000000" fill-opacity="0.200000" stroke="#000000" stroke-width="2" stroke-opacity="0.200000" points="106.5,-173.49 111.34,-169.37 104.98,-169.57 106.5,-173.49"/>
</g>
<!-- src/index.js&#45;&gt;src/Menus/Menu.js -->
<g id="edge35" class="edge">
<title>src/index.js&#45;&gt;src/Menus/Menu.js</title>
<path fill="none" stroke="#000000" stroke-width="2" stroke-opacity="0.200000" d="M54.77,-227.73C61.17,-209.42 75.51,-167.22 85,-131 89.95,-112.11 80.85,-102.44 94,-88 98.41,-83.16 104.34,-79.87 110.54,-77.63"/>
<polygon fill="#000000" fill-opacity="0.200000" stroke="#000000" stroke-width="2" stroke-opacity="0.200000" points="111.16,-79.63 116.27,-75.86 109.92,-75.62 111.16,-79.63"/>
</g>
<!-- src/index.js&#45;&gt;src/Menus/Menus.js -->
<g id="edge36" class="edge">
<title>src/index.js&#45;&gt;src/Menus/Menus.js</title>
<path fill="none" stroke="#000000" stroke-width="2" stroke-opacity="0.200000" d="M53.29,-227.97C57.3,-210.04 68.74,-169.83 94,-148 98.7,-143.94 104.49,-140.97 110.41,-138.81"/>
<polygon fill="#000000" fill-opacity="0.200000" stroke="#000000" stroke-width="2" stroke-opacity="0.200000" points="111.28,-140.74 116.35,-136.91 109.99,-136.74 111.28,-140.74"/>
</g>
<!-- src/index.js&#45;&gt;src/Menus/NewMenu.js -->
<g id="edge37" class="edge">
<title>src/index.js&#45;&gt;src/Menus/NewMenu.js</title>
<path fill="none" stroke="#000000" stroke-width="2" stroke-opacity="0.200000" d="M53.68,-227.68C59.76,-202.48 77.52,-133.78 94,-118 96.84,-115.28 100.16,-113.05 103.72,-111.23"/>
<polygon fill="#000000" fill-opacity="0.200000" stroke="#000000" stroke-width="2" stroke-opacity="0.200000" points="104.82,-113.04 109.45,-108.68 103.11,-109.2 104.82,-113.04"/>
</g>
<!-- src/index.js&#45;&gt;src/Menus/SearchMenus.js -->
<g id="edge38" class="edge">
<title>src/index.js&#45;&gt;src/Menus/SearchMenus.js</title>
<path fill="none" stroke="#000000" stroke-width="2" stroke-opacity="0.200000" d="M61.63,-227.93C69.84,-221.03 81.97,-211.75 94,-206 95.25,-205.4 96.52,-204.83 97.82,-204.28"/>
<polygon fill="#000000" fill-opacity="0.200000" stroke="#000000" stroke-width="2" stroke-opacity="0.200000" points="98.81,-206.15 103.65,-202.03 97.29,-202.24 98.81,-206.15"/>
</g>
<!-- src/index.js&#45;&gt;src/index.css -->
<g id="edge33" class="edge">
<title>src/index.js&#45;&gt;src/index.css</title>
<path fill="none" stroke="#000000" stroke-width="2" stroke-opacity="0.200000" d="M53.1,-246.15C56.84,-264.72 67.87,-307.03 94,-330 98.57,-334.01 104.2,-336.96 109.98,-339.11"/>
<polygon fill="#000000" fill-opacity="0.200000" stroke="#000000" stroke-width="2" stroke-opacity="0.200000" points="109.43,-341.14 115.79,-341.01 110.74,-337.15 109.43,-341.14"/>
</g>
<!-- src/reportWebVitals.js -->
<g id="node30" class="node">
<title>src/reportWebVitals.js</title>
<g id="a_node30"><a xlink:href="src/reportWebVitals.js" xlink:title="reportWebVitals.js">
<path fill="#ffffcc" stroke="black" d="M183,-34C183,-34 104,-34 104,-34 101,-34 98,-31 98,-28 98,-28 98,-22 98,-22 98,-19 101,-16 104,-16 104,-16 183,-16 183,-16 186,-16 189,-19 189,-22 189,-22 189,-28 189,-28 189,-31 186,-34 183,-34"/>
<text text-anchor="start" x="106" y="-22.8" font-family="Helvetica,sans-Serif" font-size="9.00">reportWebVitals.js</text>
</a>
</g>
</g>
<!-- src/index.js&#45;&gt;src/reportWebVitals.js -->
<g id="edge40" class="edge">
<title>src/index.js&#45;&gt;src/reportWebVitals.js</title>
<path fill="none" stroke="#000000" stroke-width="2" stroke-opacity="0.200000" d="M55.11,-227.81C62.09,-209.63 77.41,-167.67 85,-131 88.98,-111.75 81.97,-58.55 94,-43 95.61,-40.92 97.48,-39.08 99.54,-37.46"/>
<polygon fill="#000000" fill-opacity="0.200000" stroke="#000000" stroke-width="2" stroke-opacity="0.200000" points="100.82,-39.13 104.64,-34.04 98.48,-35.64 100.82,-39.13"/>
</g>
<!-- src/setupTests.js -->
<g id="node31" class="node">
<title>src/setupTests.js</title>
<g id="a_node31"><a xlink:href="src/setupTests.js" xlink:title="setupTests.js">
<path fill="#ccffcc" stroke="black" d="M79,-125C79,-125 22,-125 22,-125 19,-125 16,-122 16,-119 16,-119 16,-113 16,-113 16,-110 19,-107 22,-107 22,-107 79,-107 79,-107 82,-107 85,-110 85,-113 85,-113 85,-119 85,-119 85,-122 82,-125 79,-125"/>
<text text-anchor="start" x="24" y="-113.8" font-family="Helvetica,sans-Serif" font-size="9.00">setupTests.js</text>
</a>
</g>
</g>
</g>
</svg>
