<?xml version="1.0" encoding="UTF-8" standalone="no"?>
<!DOCTYPE svg PUBLIC "-//W3C//DTD SVG 1.1//EN"
 "http://www.w3.org/Graphics/SVG/1.1/DTD/svg11.dtd">
<!-- Generated by graphviz version 3.0.0 (20220226.1711)
 -->
<!-- Title: dependency&#45;cruiser output Pages: 1 -->
<svg width="1029pt" height="938pt"
 viewBox="0.00 0.00 1029.00 938.00" xmlns="http://www.w3.org/2000/svg" xmlns:xlink="http://www.w3.org/1999/xlink">
<g id="graph0" class="graph" transform="scale(1 1) rotate(0) translate(4 934)">
<title>dependency&#45;cruiser output</title>
<polygon fill="white" stroke="transparent" points="-4,4 -4,-934 1025,-934 1025,4 -4,4"/>
<g id="clust1" class="cluster">
<title>cluster_components</title>
<path fill="#ffffff" stroke="black" stroke-width="2" d="M417,-600C417,-600 1001,-600 1001,-600 1007,-600 1013,-606 1013,-612 1013,-612 1013,-910 1013,-910 1013,-916 1007,-922 1001,-922 1001,-922 417,-922 417,-922 411,-922 405,-916 405,-910 405,-910 405,-612 405,-612 405,-606 411,-600 417,-600"/>
<text text-anchor="middle" x="709" y="-910.8" font-family="Helvetica,sans-Serif" font-weight="bold" font-size="9.00">components</text>
</g>
<g id="clust2" class="cluster">
<title>cluster_components/Dish</title>
<path fill="#ffffff" stroke="black" stroke-width="2" d="M809,-608C809,-608 993,-608 993,-608 999,-608 1005,-614 1005,-620 1005,-620 1005,-678 1005,-678 1005,-684 999,-690 993,-690 993,-690 809,-690 809,-690 803,-690 797,-684 797,-678 797,-678 797,-620 797,-620 797,-614 803,-608 809,-608"/>
<text text-anchor="middle" x="901" y="-678.8" font-family="Helvetica,sans-Serif" font-weight="bold" font-size="9.00">Dish</text>
</g>
<g id="clust3" class="cluster">
<title>cluster_components/Menus</title>
<path fill="#ffffff" stroke="black" stroke-width="2" d="M425,-698C425,-698 905.5,-698 905.5,-698 911.5,-698 917.5,-704 917.5,-710 917.5,-710 917.5,-828 917.5,-828 917.5,-834 911.5,-840 905.5,-840 905.5,-840 425,-840 425,-840 419,-840 413,-834 413,-828 413,-828 413,-710 413,-710 413,-704 419,-698 425,-698"/>
<text text-anchor="middle" x="665.25" y="-828.8" font-family="Helvetica,sans-Serif" font-weight="bold" font-size="9.00">Menus</text>
</g>
<g id="clust4" class="cluster">
<title>cluster_context</title>
<path fill="#ffffff" stroke="black" stroke-width="2" d="M578.5,-72C578.5,-72 649.5,-72 649.5,-72 655.5,-72 661.5,-78 661.5,-84 661.5,-84 661.5,-112 661.5,-112 661.5,-118 655.5,-124 649.5,-124 649.5,-124 578.5,-124 578.5,-124 572.5,-124 566.5,-118 566.5,-112 566.5,-112 566.5,-84 566.5,-84 566.5,-78 572.5,-72 578.5,-72"/>
<text text-anchor="middle" x="614" y="-112.8" font-family="Helvetica,sans-Serif" font-weight="bold" font-size="9.00">context</text>
</g>
<g id="clust5" class="cluster">
<title>cluster_hooks</title>
<path fill="#ffffff" stroke="black" stroke-width="2" d="M452,-180C452,-180 503,-180 503,-180 509,-180 515,-186 515,-192 515,-192 515,-220 515,-220 515,-226 509,-232 503,-232 503,-232 452,-232 452,-232 446,-232 440,-226 440,-220 440,-220 440,-192 440,-192 440,-186 446,-180 452,-180"/>
<text text-anchor="middle" x="477.5" y="-220.8" font-family="Helvetica,sans-Serif" font-weight="bold" font-size="9.00">hooks</text>
</g>
<g id="clust6" class="cluster">
<title>cluster_pages</title>
<path fill="#ffffff" stroke="black" stroke-width="2" d="M20,-240C20,-240 508.5,-240 508.5,-240 514.5,-240 520.5,-246 520.5,-252 520.5,-252 520.5,-580 520.5,-580 520.5,-586 514.5,-592 508.5,-592 508.5,-592 20,-592 20,-592 14,-592 8,-586 8,-580 8,-580 8,-252 8,-252 8,-246 14,-240 20,-240"/>
<text text-anchor="middle" x="264.25" y="-580.8" font-family="Helvetica,sans-Serif" font-weight="bold" font-size="9.00">pages</text>
</g>
<g id="clust7" class="cluster">
<title>cluster_pages/api</title>
<path fill="#ffffff" stroke="black" stroke-width="2" d="M454.5,-482C454.5,-482 500.5,-482 500.5,-482 506.5,-482 512.5,-488 512.5,-494 512.5,-494 512.5,-522 512.5,-522 512.5,-528 506.5,-534 500.5,-534 500.5,-534 454.5,-534 454.5,-534 448.5,-534 442.5,-528 442.5,-522 442.5,-522 442.5,-494 442.5,-494 442.5,-488 448.5,-482 454.5,-482"/>
<text text-anchor="middle" x="477.5" y="-522.8" font-family="Helvetica,sans-Serif" font-weight="bold" font-size="9.00">api</text>
</g>
<g id="clust8" class="cluster">
<title>cluster_pages/dishes</title>
<path fill="#ffffff" stroke="black" stroke-width="2" d="M222.5,-274C222.5,-274 269.5,-274 269.5,-274 275.5,-274 281.5,-280 281.5,-286 281.5,-286 281.5,-404 281.5,-404 281.5,-410 275.5,-416 269.5,-416 269.5,-416 222.5,-416 222.5,-416 216.5,-416 210.5,-410 210.5,-404 210.5,-404 210.5,-286 210.5,-286 210.5,-280 216.5,-274 222.5,-274"/>
<text text-anchor="middle" x="246" y="-404.8" font-family="Helvetica,sans-Serif" font-weight="bold" font-size="9.00">dishes</text>
</g>
<g id="clust9" class="cluster">
<title>cluster_pages/menus</title>
<path fill="#ffffff" stroke="black" stroke-width="2" d="M219.5,-424C219.5,-424 272.5,-424 272.5,-424 278.5,-424 284.5,-430 284.5,-436 284.5,-436 284.5,-554 284.5,-554 284.5,-560 278.5,-566 272.5,-566 272.5,-566 219.5,-566 219.5,-566 213.5,-566 207.5,-560 207.5,-554 207.5,-554 207.5,-436 207.5,-436 207.5,-430 213.5,-424 219.5,-424"/>
<text text-anchor="middle" x="246" y="-554.8" font-family="Helvetica,sans-Serif" font-weight="bold" font-size="9.00">menus</text>
</g>
<g id="clust10" class="cluster">
<title>cluster_public</title>
<path fill="#ffffff" stroke="black" stroke-width="2" d="M107,-8C107,-8 385,-8 385,-8 391,-8 397,-14 397,-20 397,-20 397,-112 397,-112 397,-118 391,-124 385,-124 385,-124 107,-124 107,-124 101,-124 95,-118 95,-112 95,-112 95,-20 95,-20 95,-14 101,-8 107,-8"/>
<text text-anchor="middle" x="246" y="-112.8" font-family="Helvetica,sans-Serif" font-weight="bold" font-size="9.00">public</text>
</g>
<g id="clust11" class="cluster">
<title>cluster_public/img</title>
<path fill="#ffffff" stroke="black" stroke-width="2" d="M115,-16C115,-16 377,-16 377,-16 383,-16 389,-22 389,-28 389,-28 389,-86 389,-86 389,-92 383,-98 377,-98 377,-98 115,-98 115,-98 109,-98 103,-92 103,-86 103,-86 103,-28 103,-28 103,-22 109,-16 115,-16"/>
<text text-anchor="middle" x="246" y="-86.8" font-family="Helvetica,sans-Serif" font-weight="bold" font-size="9.00">img</text>
</g>
<!-- components/Dish/DishDisplay.js -->
<g id="node1" class="node">
<title>components/Dish/DishDisplay.js</title>
<g id="a_node1"><a xlink:href="components/Dish/DishDisplay.js" xlink:title="DishDisplay.js">
<path fill="#ffffcc" stroke="black" d="M896.5,-634C896.5,-634 833.5,-634 833.5,-634 830.5,-634 827.5,-631 827.5,-628 827.5,-628 827.5,-622 827.5,-622 827.5,-619 830.5,-616 833.5,-616 833.5,-616 896.5,-616 896.5,-616 899.5,-616 902.5,-619 902.5,-622 902.5,-622 902.5,-628 902.5,-628 902.5,-631 899.5,-634 896.5,-634"/>
<text text-anchor="start" x="835.5" y="-622.8" font-family="Helvetica,sans-Serif" font-size="9.00">DishDisplay.js</text>
</a>
</g>
</g>
<!-- components/Dish/DishTile.js -->
<g id="node2" class="node">
<title>components/Dish/DishTile.js</title>
<g id="a_node2"><a xlink:href="components/Dish/DishTile.js" xlink:title="DishTile.js">
<path fill="#ffffcc" stroke="black" d="M991,-634C991,-634 944,-634 944,-634 941,-634 938,-631 938,-628 938,-628 938,-622 938,-622 938,-619 941,-616 944,-616 944,-616 991,-616 991,-616 994,-616 997,-619 997,-622 997,-622 997,-628 997,-628 997,-631 994,-634 991,-634"/>
<text text-anchor="start" x="946" y="-622.8" font-family="Helvetica,sans-Serif" font-size="9.00">DishTile.js</text>
</a>
</g>
</g>
<!-- components/Dish/DishDisplay.js&#45;&gt;components/Dish/DishTile.js -->
<g id="edge1" class="edge">
<title>components/Dish/DishDisplay.js&#45;&gt;components/Dish/DishTile.js</title>
<path fill="none" stroke="#000000" stroke-width="2" stroke-opacity="0.200000" d="M902.57,-625C912.14,-625 922.44,-625 931.91,-625"/>
<polygon fill="#000000" fill-opacity="0.200000" stroke="#000000" stroke-width="2" stroke-opacity="0.200000" points="931.99,-627.1 937.99,-625 931.99,-622.9 931.99,-627.1"/>
</g>
<!-- components/Dish/DishSearchFormGroup.js -->
<g id="node3" class="node">
<title>components/Dish/DishSearchFormGroup.js</title>
<g id="a_node3"><a xlink:href="components/Dish/DishSearchFormGroup.js" xlink:title="DishSearchFormGroup.js">
<path fill="#ffffcc" stroke="black" d="M919,-664C919,-664 811,-664 811,-664 808,-664 805,-661 805,-658 805,-658 805,-652 805,-652 805,-649 808,-646 811,-646 811,-646 919,-646 919,-646 922,-646 925,-649 925,-652 925,-652 925,-658 925,-658 925,-661 922,-664 919,-664"/>
<text text-anchor="start" x="813" y="-652.8" font-family="Helvetica,sans-Serif" font-size="9.00">DishSearchFormGroup.js</text>
</a>
</g>
</g>
<!-- components/GlobalFooter.js -->
<g id="node4" class="node">
<title>components/GlobalFooter.js</title>
<g id="a_node4"><a xlink:href="components/GlobalFooter.js" xlink:title="GlobalFooter.js">
<path fill="#ffffcc" stroke="black" d="M511,-896C511,-896 444,-896 444,-896 441,-896 438,-893 438,-890 438,-890 438,-884 438,-884 438,-881 441,-878 444,-878 444,-878 511,-878 511,-878 514,-878 517,-881 517,-884 517,-884 517,-890 517,-890 517,-893 514,-896 511,-896"/>
<text text-anchor="start" x="446" y="-884.8" font-family="Helvetica,sans-Serif" font-size="9.00">GlobalFooter.js</text>
</a>
</g>
</g>
<!-- components/GlobalNav.js -->
<g id="node5" class="node">
<title>components/GlobalNav.js</title>
<g id="a_node5"><a xlink:href="components/GlobalNav.js" xlink:title="GlobalNav.js">
<path fill="#ffffcc" stroke="black" d="M506,-866C506,-866 449,-866 449,-866 446,-866 443,-863 443,-860 443,-860 443,-854 443,-854 443,-851 446,-848 449,-848 449,-848 506,-848 506,-848 509,-848 512,-851 512,-854 512,-854 512,-860 512,-860 512,-863 509,-866 506,-866"/>
<text text-anchor="start" x="451" y="-854.8" font-family="Helvetica,sans-Serif" font-size="9.00">GlobalNav.js</text>
</a>
</g>
</g>
<!-- components/Menus/MenuCategory.js -->
<g id="node6" class="node">
<title>components/Menus/MenuCategory.js</title>
<g id="a_node6"><a xlink:href="components/Menus/MenuCategory.js" xlink:title="MenuCategory.js">
<path fill="#ffffcc" stroke="black" d="M651,-784C651,-784 577,-784 577,-784 574,-784 571,-781 571,-778 571,-778 571,-772 571,-772 571,-769 574,-766 577,-766 577,-766 651,-766 651,-766 654,-766 657,-769 657,-772 657,-772 657,-778 657,-778 657,-781 654,-784 651,-784"/>
<text text-anchor="start" x="579" y="-772.8" font-family="Helvetica,sans-Serif" font-size="9.00">MenuCategory.js</text>
</a>
</g>
</g>
<!-- components/Menus/MenuCategory.js&#45;&gt;components/Dish/DishDisplay.js -->
<g id="edge2" class="edge">
<title>components/Menus/MenuCategory.js&#45;&gt;components/Dish/DishDisplay.js</title>
<path fill="none" stroke="#000000" stroke-width="2" stroke-opacity="0.200000" d="M657.03,-769.63C665.35,-767.44 673.74,-764.35 681,-760 688.57,-755.46 688.02,-751.49 694,-745 738.32,-696.94 739.87,-671.78 797,-640 804.53,-635.81 813.16,-632.79 821.65,-630.61"/>
<polygon fill="#000000" fill-opacity="0.200000" stroke="#000000" stroke-width="2" stroke-opacity="0.200000" points="822.14,-632.66 827.5,-629.24 821.18,-628.57 822.14,-632.66"/>
</g>
<!-- components/Menus/MenuCategoryForm.js -->
<g id="node7" class="node">
<title>components/Menus/MenuCategoryForm.js</title>
<g id="a_node7"><a xlink:href="components/Menus/MenuCategoryForm.js" xlink:title="MenuCategoryForm.js">
<path fill="#ffffcc" stroke="black" d="M661.5,-814C661.5,-814 566.5,-814 566.5,-814 563.5,-814 560.5,-811 560.5,-808 560.5,-808 560.5,-802 560.5,-802 560.5,-799 563.5,-796 566.5,-796 566.5,-796 661.5,-796 661.5,-796 664.5,-796 667.5,-799 667.5,-802 667.5,-802 667.5,-808 667.5,-808 667.5,-811 664.5,-814 661.5,-814"/>
<text text-anchor="start" x="568.5" y="-802.8" font-family="Helvetica,sans-Serif" font-size="9.00">MenuCategoryForm.js</text>
</a>
</g>
</g>
<!-- components/Menus/MenuItemSearch.js -->
<g id="node8" class="node">
<title>components/Menus/MenuItemSearch.js</title>
<g id="a_node8"><a xlink:href="components/Menus/MenuItemSearch.js" xlink:title="MenuItemSearch.js">
<path fill="#ffffcc" stroke="black" d="M783,-769C783,-769 700,-769 700,-769 697,-769 694,-766 694,-763 694,-763 694,-757 694,-757 694,-754 697,-751 700,-751 700,-751 783,-751 783,-751 786,-751 789,-754 789,-757 789,-757 789,-763 789,-763 789,-766 786,-769 783,-769"/>
<text text-anchor="start" x="702" y="-757.8" font-family="Helvetica,sans-Serif" font-size="9.00">MenuItemSearch.js</text>
</a>
</g>
</g>
<!-- components/Menus/MenuCategoryForm.js&#45;&gt;components/Menus/MenuItemSearch.js -->
<g id="edge3" class="edge">
<title>components/Menus/MenuCategoryForm.js&#45;&gt;components/Menus/MenuItemSearch.js</title>
<path fill="none" stroke="#000000" stroke-width="2" stroke-opacity="0.200000" d="M661.57,-795.92C668.17,-794.2 674.81,-792.23 681,-790 694.16,-785.27 708.17,-778.31 719.28,-772.29"/>
<polygon fill="#000000" fill-opacity="0.200000" stroke="#000000" stroke-width="2" stroke-opacity="0.200000" points="720.57,-773.98 724.81,-769.24 718.54,-770.3 720.57,-773.98"/>
</g>
<!-- components/Menus/MenuItemSearch.js&#45;&gt;components/Dish/DishSearchFormGroup.js -->
<g id="edge6" class="edge">
<title>components/Menus/MenuItemSearch.js&#45;&gt;components/Dish/DishSearchFormGroup.js</title>
<path fill="none" stroke="#000000" stroke-width="2" stroke-opacity="0.200000" d="M748.72,-750.76C758.08,-737.34 776.82,-712.19 797,-695 809.99,-683.93 826.43,-674.07 839.77,-666.9"/>
<polygon fill="#000000" fill-opacity="0.200000" stroke="#000000" stroke-width="2" stroke-opacity="0.200000" points="840.94,-668.66 845.28,-664 838.99,-664.94 840.94,-668.66"/>
</g>
<!-- components/Menus/MenuItemTable.js -->
<g id="node12" class="node">
<title>components/Menus/MenuItemTable.js</title>
<g id="a_node12"><a xlink:href="components/Menus/MenuItemTable.js" xlink:title="MenuItemTable.js">
<path fill="#ffffcc" stroke="black" d="M903.5,-769C903.5,-769 826.5,-769 826.5,-769 823.5,-769 820.5,-766 820.5,-763 820.5,-763 820.5,-757 820.5,-757 820.5,-754 823.5,-751 826.5,-751 826.5,-751 903.5,-751 903.5,-751 906.5,-751 909.5,-754 909.5,-757 909.5,-757 909.5,-763 909.5,-763 909.5,-766 906.5,-769 903.5,-769"/>
<text text-anchor="start" x="828.5" y="-757.8" font-family="Helvetica,sans-Serif" font-size="9.00">MenuItemTable.js</text>
</a>
</g>
</g>
<!-- components/Menus/MenuItemSearch.js&#45;&gt;components/Menus/MenuItemTable.js -->
<g id="edge7" class="edge">
<title>components/Menus/MenuItemSearch.js&#45;&gt;components/Menus/MenuItemTable.js</title>
<path fill="none" stroke="#000000" stroke-width="2" stroke-opacity="0.200000" d="M789.13,-760C797.34,-760 805.92,-760 814.21,-760"/>
<polygon fill="#000000" fill-opacity="0.200000" stroke="#000000" stroke-width="2" stroke-opacity="0.200000" points="814.49,-762.1 820.49,-760 814.49,-757.9 814.49,-762.1"/>
</g>
<!-- components/Menus/MenuContent.js -->
<g id="node9" class="node">
<title>components/Menus/MenuContent.js</title>
<g id="a_node9"><a xlink:href="components/Menus/MenuContent.js" xlink:title="MenuContent.js">
<path fill="#ffffcc" stroke="black" d="M512,-784C512,-784 443,-784 443,-784 440,-784 437,-781 437,-778 437,-778 437,-772 437,-772 437,-769 440,-766 443,-766 443,-766 512,-766 512,-766 515,-766 518,-769 518,-772 518,-772 518,-778 518,-778 518,-781 515,-784 512,-784"/>
<text text-anchor="start" x="445" y="-772.8" font-family="Helvetica,sans-Serif" font-size="9.00">MenuContent.js</text>
</a>
</g>
</g>
<!-- components/Menus/MenuContent.js&#45;&gt;components/Menus/MenuCategory.js -->
<g id="edge4" class="edge">
<title>components/Menus/MenuContent.js&#45;&gt;components/Menus/MenuCategory.js</title>
<path fill="none" stroke="#000000" stroke-width="2" stroke-opacity="0.200000" d="M518.13,-775C532.77,-775 549.52,-775 564.83,-775"/>
<polygon fill="#000000" fill-opacity="0.200000" stroke="#000000" stroke-width="2" stroke-opacity="0.200000" points="564.85,-777.1 570.85,-775 564.85,-772.9 564.85,-777.1"/>
</g>
<!-- components/Menus/MenuDisplay.js -->
<g id="node10" class="node">
<title>components/Menus/MenuDisplay.js</title>
<g id="a_node10"><a xlink:href="components/Menus/MenuDisplay.js" xlink:title="MenuDisplay.js">
<path fill="#ffffcc" stroke="black" d="M511.5,-724C511.5,-724 443.5,-724 443.5,-724 440.5,-724 437.5,-721 437.5,-718 437.5,-718 437.5,-712 437.5,-712 437.5,-709 440.5,-706 443.5,-706 443.5,-706 511.5,-706 511.5,-706 514.5,-706 517.5,-709 517.5,-712 517.5,-712 517.5,-718 517.5,-718 517.5,-721 514.5,-724 511.5,-724"/>
<text text-anchor="start" x="445.5" y="-712.8" font-family="Helvetica,sans-Serif" font-size="9.00">MenuDisplay.js</text>
</a>
</g>
</g>
<!-- components/Menus/MenuName.js -->
<g id="node11" class="node">
<title>components/Menus/MenuName.js</title>
<g id="a_node11"><a xlink:href="components/Menus/MenuName.js" xlink:title="MenuName.js">
<path fill="#ffffcc" stroke="black" d="M645,-724C645,-724 583,-724 583,-724 580,-724 577,-721 577,-718 577,-718 577,-712 577,-712 577,-709 580,-706 583,-706 583,-706 645,-706 645,-706 648,-706 651,-709 651,-712 651,-712 651,-718 651,-718 651,-721 648,-724 645,-724"/>
<text text-anchor="start" x="585" y="-712.8" font-family="Helvetica,sans-Serif" font-size="9.00">MenuName.js</text>
</a>
</g>
</g>
<!-- components/Menus/MenuDisplay.js&#45;&gt;components/Menus/MenuName.js -->
<g id="edge5" class="edge">
<title>components/Menus/MenuDisplay.js&#45;&gt;components/Menus/MenuName.js</title>
<path fill="none" stroke="#000000" stroke-width="2" stroke-opacity="0.200000" d="M517.76,-715C534.34,-715 553.67,-715 570.57,-715"/>
<polygon fill="#000000" fill-opacity="0.200000" stroke="#000000" stroke-width="2" stroke-opacity="0.200000" points="570.68,-717.1 576.68,-715 570.68,-712.9 570.68,-717.1"/>
</g>
<!-- components/Menus/MenuNewCategory.js -->
<g id="node13" class="node">
<title>components/Menus/MenuNewCategory.js</title>
<g id="a_node13"><a xlink:href="components/Menus/MenuNewCategory.js" xlink:title="MenuNewCategory.js">
<path fill="#ffffcc" stroke="black" d="M524,-814C524,-814 431,-814 431,-814 428,-814 425,-811 425,-808 425,-808 425,-802 425,-802 425,-799 428,-796 431,-796 431,-796 524,-796 524,-796 527,-796 530,-799 530,-802 530,-802 530,-808 530,-808 530,-811 527,-814 524,-814"/>
<text text-anchor="start" x="433" y="-802.8" font-family="Helvetica,sans-Serif" font-size="9.00">MenuNewCategory.js</text>
</a>
</g>
</g>
<!-- components/Menus/MenuNewCategory.js&#45;&gt;components/Menus/MenuCategory.js -->
<g id="edge8" class="edge">
<title>components/Menus/MenuNewCategory.js&#45;&gt;components/Menus/MenuCategory.js</title>
<path fill="none" stroke="#000000" stroke-width="2" stroke-opacity="0.200000" d="M518.85,-796C533.75,-792.68 550.74,-788.89 566.16,-785.45"/>
<polygon fill="#000000" fill-opacity="0.200000" stroke="#000000" stroke-width="2" stroke-opacity="0.200000" points="566.81,-787.45 572.21,-784.1 565.9,-783.35 566.81,-787.45"/>
</g>
<!-- components/Menus/MenuNewCategory.js&#45;&gt;components/Menus/MenuCategoryForm.js -->
<g id="edge9" class="edge">
<title>components/Menus/MenuNewCategory.js&#45;&gt;components/Menus/MenuCategoryForm.js</title>
<path fill="none" stroke="#000000" stroke-width="2" stroke-opacity="0.200000" d="M530.12,-805C538.03,-805 546.24,-805 554.29,-805"/>
<polygon fill="#000000" fill-opacity="0.200000" stroke="#000000" stroke-width="2" stroke-opacity="0.200000" points="554.41,-807.1 560.41,-805 554.41,-802.9 554.41,-807.1"/>
</g>
<!-- components/Menus/MenuNewRestaurant.js -->
<g id="node14" class="node">
<title>components/Menus/MenuNewRestaurant.js</title>
<g id="a_node14"><a xlink:href="components/Menus/MenuNewRestaurant.js" xlink:title="MenuNewRestaurant.js">
<path fill="#ffffcc" stroke="black" d="M528,-754C528,-754 427,-754 427,-754 424,-754 421,-751 421,-748 421,-748 421,-742 421,-742 421,-739 424,-736 427,-736 427,-736 528,-736 528,-736 531,-736 534,-739 534,-742 534,-742 534,-748 534,-748 534,-751 531,-754 528,-754"/>
<text text-anchor="start" x="429" y="-742.8" font-family="Helvetica,sans-Serif" font-size="9.00">MenuNewRestaurant.js</text>
</a>
</g>
</g>
<!-- components/Menus/MenuNewRestaurant.js&#45;&gt;components/Menus/MenuName.js -->
<g id="edge10" class="edge">
<title>components/Menus/MenuNewRestaurant.js&#45;&gt;components/Menus/MenuName.js</title>
<path fill="none" stroke="#000000" stroke-width="2" stroke-opacity="0.200000" d="M518.85,-736C535.26,-732.34 554.21,-728.11 570.8,-724.41"/>
<polygon fill="#000000" fill-opacity="0.200000" stroke="#000000" stroke-width="2" stroke-opacity="0.200000" points="571.39,-726.43 576.79,-723.08 570.48,-722.33 571.39,-726.43"/>
</g>
<!-- components/Menus/MenuNewRestaurantForm.js -->
<g id="node15" class="node">
<title>components/Menus/MenuNewRestaurantForm.js</title>
<g id="a_node15"><a xlink:href="components/Menus/MenuNewRestaurantForm.js" xlink:title="MenuNewRestaurantForm.js">
<path fill="#ffffcc" stroke="black" d="M675,-754C675,-754 553,-754 553,-754 550,-754 547,-751 547,-748 547,-748 547,-742 547,-742 547,-739 550,-736 553,-736 553,-736 675,-736 675,-736 678,-736 681,-739 681,-742 681,-742 681,-748 681,-748 681,-751 678,-754 675,-754"/>
<text text-anchor="start" x="555" y="-742.8" font-family="Helvetica,sans-Serif" font-size="9.00">MenuNewRestaurantForm.js</text>
</a>
</g>
</g>
<!-- components/Menus/MenuNewRestaurant.js&#45;&gt;components/Menus/MenuNewRestaurantForm.js -->
<g id="edge11" class="edge">
<title>components/Menus/MenuNewRestaurant.js&#45;&gt;components/Menus/MenuNewRestaurantForm.js</title>
<path fill="none" stroke="#000000" stroke-width="2" stroke-opacity="0.200000" d="M534.37,-745C536.39,-745 538.43,-745 540.47,-745"/>
<polygon fill="#000000" fill-opacity="0.200000" stroke="#000000" stroke-width="2" stroke-opacity="0.200000" points="540.61,-747.1 546.61,-745 540.61,-742.9 540.61,-747.1"/>
</g>
<!-- context/AuthProvider.js -->
<g id="node16" class="node">
<title>context/AuthProvider.js</title>
<g id="a_node16"><a xlink:href="context/AuthProvider.js" xlink:title="AuthProvider.js">
<path fill="#ffffcc" stroke="black" d="M647.5,-98C647.5,-98 580.5,-98 580.5,-98 577.5,-98 574.5,-95 574.5,-92 574.5,-92 574.5,-86 574.5,-86 574.5,-83 577.5,-80 580.5,-80 580.5,-80 647.5,-80 647.5,-80 650.5,-80 653.5,-83 653.5,-86 653.5,-86 653.5,-92 653.5,-92 653.5,-95 650.5,-98 647.5,-98"/>
<text text-anchor="start" x="582.5" y="-86.8" font-family="Helvetica,sans-Serif" font-size="9.00">AuthProvider.js</text>
</a>
</g>
</g>
<!-- hooks/useAuth.js -->
<g id="node17" class="node">
<title>hooks/useAuth.js</title>
<g id="a_node17"><a xlink:href="hooks/useAuth.js" xlink:title="useAuth.js">
<path fill="#ffffcc" stroke="black" d="M501,-206C501,-206 454,-206 454,-206 451,-206 448,-203 448,-200 448,-200 448,-194 448,-194 448,-191 451,-188 454,-188 454,-188 501,-188 501,-188 504,-188 507,-191 507,-194 507,-194 507,-200 507,-200 507,-203 504,-206 501,-206"/>
<text text-anchor="start" x="456" y="-194.8" font-family="Helvetica,sans-Serif" font-size="9.00">useAuth.js</text>
</a>
</g>
</g>
<!-- hooks/useAuth.js&#45;&gt;context/AuthProvider.js -->
<g id="edge12" class="edge">
<title>hooks/useAuth.js&#45;&gt;context/AuthProvider.js</title>
<path fill="none" stroke="#000000" stroke-width="2" stroke-opacity="0.200000" d="M507.12,-188.46C516.15,-185.05 525.89,-180.58 534,-175 563.21,-154.9 589.39,-122.12 603.04,-103.37"/>
<polygon fill="#000000" fill-opacity="0.200000" stroke="#000000" stroke-width="2" stroke-opacity="0.200000" points="605.07,-104.13 606.86,-98.03 601.66,-101.69 605.07,-104.13"/>
</g>
<!-- pages/404.js -->
<g id="node18" class="node">
<title>pages/404.js</title>
<g id="a_node18"><a xlink:href="pages/404.js" xlink:title="404.js">
<path fill="#ffffcc" stroke="black" d="M498.5,-560C498.5,-560 456.5,-560 456.5,-560 453.5,-560 450.5,-557 450.5,-554 450.5,-554 450.5,-548 450.5,-548 450.5,-545 453.5,-542 456.5,-542 456.5,-542 498.5,-542 498.5,-542 501.5,-542 504.5,-545 504.5,-548 504.5,-548 504.5,-554 504.5,-554 504.5,-557 501.5,-560 498.5,-560"/>
<text text-anchor="start" x="465" y="-548.8" font-family="Helvetica,sans-Serif" font-size="9.00">404.js</text>
</a>
</g>
</g>
<!-- pages/_app.js -->
<g id="node19" class="node">
<title>pages/_app.js</title>
<g id="a_node19"><a xlink:href="pages/_app.js" xlink:title="_app.js">
<path fill="#ffffcc" stroke="black" d="M72.5,-326C72.5,-326 30.5,-326 30.5,-326 27.5,-326 24.5,-323 24.5,-320 24.5,-320 24.5,-314 24.5,-314 24.5,-311 27.5,-308 30.5,-308 30.5,-308 72.5,-308 72.5,-308 75.5,-308 78.5,-311 78.5,-314 78.5,-314 78.5,-320 78.5,-320 78.5,-323 75.5,-326 72.5,-326"/>
<text text-anchor="start" x="36" y="-314.8" font-family="Helvetica,sans-Serif" font-size="9.00">_app.js</text>
</a>
</g>
</g>
<!-- pages/_app.js&#45;&gt;components/GlobalFooter.js -->
<g id="edge13" class="edge">
<title>pages/_app.js&#45;&gt;components/GlobalFooter.js</title>
<path fill="none" stroke="#000000" stroke-width="2" stroke-opacity="0.200000" d="M52.42,-326.33C52.15,-378.44 52.99,-633.46 95,-697 173.34,-815.51 348.76,-863.13 431.58,-879.53"/>
<polygon fill="#000000" fill-opacity="0.200000" stroke="#000000" stroke-width="2" stroke-opacity="0.200000" points="431.57,-881.67 437.86,-880.75 432.37,-877.55 431.57,-881.67"/>
</g>
<!-- pages/_app.js&#45;&gt;components/GlobalNav.js -->
<g id="edge14" class="edge">
<title>pages/_app.js&#45;&gt;components/GlobalNav.js</title>
<path fill="none" stroke="#000000" stroke-width="2" stroke-opacity="0.200000" d="M53.16,-326.09C56.17,-366.1 69.67,-526.38 95,-569 182.17,-715.67 306.49,-661.37 397,-806 405.93,-820.26 392.99,-831.22 405,-843 413.46,-851.3 425.3,-855.39 436.92,-857.26"/>
<polygon fill="#000000" fill-opacity="0.200000" stroke="#000000" stroke-width="2" stroke-opacity="0.200000" points="436.73,-859.35 442.95,-858.04 437.27,-855.19 436.73,-859.35"/>
</g>
<!-- pages/_app.js&#45;&gt;context/AuthProvider.js -->
<g id="edge15" class="edge">
<title>pages/_app.js&#45;&gt;context/AuthProvider.js</title>
<path fill="none" stroke="#000000" stroke-width="2" stroke-opacity="0.200000" d="M78.56,-309.51C81.84,-307.55 84.81,-305.09 87,-302 101.17,-282 78.77,-210.37 95,-192 157.41,-121.35 453.72,-97.75 567.95,-91.19"/>
<polygon fill="#000000" fill-opacity="0.200000" stroke="#000000" stroke-width="2" stroke-opacity="0.200000" points="568.36,-93.27 574.23,-90.84 568.12,-89.08 568.36,-93.27"/>
</g>
<!-- pages/_app.js&#45;&gt;hooks/useAuth.js -->
<g id="edge16" class="edge">
<title>pages/_app.js&#45;&gt;hooks/useAuth.js</title>
<path fill="none" stroke="#000000" stroke-width="2" stroke-opacity="0.200000" d="M78.73,-309.18C81.91,-307.28 84.8,-304.92 87,-302 103.21,-280.53 75.83,-260.88 95,-242 143.5,-194.23 357.24,-194.03 441.85,-195.91"/>
<polygon fill="#000000" fill-opacity="0.200000" stroke="#000000" stroke-width="2" stroke-opacity="0.200000" points="441.9,-198.01 447.95,-196.06 442,-193.81 441.9,-198.01"/>
</g>
<!-- pages/login.js -->
<g id="node20" class="node">
<title>pages/login.js</title>
<g id="a_node20"><a xlink:href="pages/login.js" xlink:title="login.js">
<path fill="#ffffcc" stroke="black" d="M267,-266C267,-266 225,-266 225,-266 222,-266 219,-263 219,-260 219,-260 219,-254 219,-254 219,-251 222,-248 225,-248 225,-248 267,-248 267,-248 270,-248 273,-251 273,-254 273,-254 273,-260 273,-260 273,-263 270,-266 267,-266"/>
<text text-anchor="start" x="231" y="-254.8" font-family="Helvetica,sans-Serif" font-size="9.00">login.js</text>
</a>
</g>
</g>
<!-- pages/_app.js&#45;&gt;pages/login.js -->
<g id="edge17" class="edge">
<title>pages/_app.js&#45;&gt;pages/login.js</title>
<path fill="none" stroke="#000000" stroke-width="2" stroke-opacity="0.200000" d="M78.77,-308.73C81.85,-306.9 84.71,-304.68 87,-302 96.24,-291.18 84.17,-280.23 95,-271 127.42,-243.37 179.3,-245.23 212.76,-250.24"/>
<polygon fill="#000000" fill-opacity="0.200000" stroke="#000000" stroke-width="2" stroke-opacity="0.200000" points="212.53,-252.33 218.78,-251.21 213.19,-248.18 212.53,-252.33"/>
</g>
<!-- pages/login.js&#45;&gt;hooks/useAuth.js -->
<g id="edge29" class="edge">
<title>pages/login.js&#45;&gt;hooks/useAuth.js</title>
<path fill="none" stroke="#000000" stroke-width="2" stroke-opacity="0.200000" d="M273.2,-251.83C303.28,-245.72 354.02,-234.87 397,-223 412.92,-218.6 430.39,-212.98 444.89,-208.09"/>
<polygon fill="#000000" fill-opacity="0.200000" stroke="#000000" stroke-width="2" stroke-opacity="0.200000" points="445.9,-209.96 450.91,-206.04 444.55,-205.99 445.9,-209.96"/>
</g>
<!-- pages/api/axios.js -->
<g id="node22" class="node">
<title>pages/api/axios.js</title>
<g id="a_node22"><a xlink:href="pages/api/axios.js" xlink:title="axios.js">
<path fill="#ffffcc" stroke="black" d="M498.5,-508C498.5,-508 456.5,-508 456.5,-508 453.5,-508 450.5,-505 450.5,-502 450.5,-502 450.5,-496 450.5,-496 450.5,-493 453.5,-490 456.5,-490 456.5,-490 498.5,-490 498.5,-490 501.5,-490 504.5,-493 504.5,-496 504.5,-496 504.5,-502 504.5,-502 504.5,-505 501.5,-508 498.5,-508"/>
<text text-anchor="start" x="462" y="-496.8" font-family="Helvetica,sans-Serif" font-size="9.00">axios.js</text>
</a>
</g>
</g>
<!-- pages/login.js&#45;&gt;pages/api/axios.js -->
<g id="edge30" class="edge">
<title>pages/login.js&#45;&gt;pages/api/axios.js</title>
<path fill="none" stroke="#000000" stroke-width="2" stroke-opacity="0.200000" d="M273.13,-251.62C305.72,-246.5 361.47,-243.19 397,-271 465.62,-324.72 475.22,-441.54 476.4,-483.55"/>
<polygon fill="#000000" fill-opacity="0.200000" stroke="#000000" stroke-width="2" stroke-opacity="0.200000" points="474.3,-483.68 476.53,-489.63 478.5,-483.59 474.3,-483.68"/>
</g>
<!-- pages/_document.js -->
<g id="node21" class="node">
<title>pages/_document.js</title>
<g id="a_node21"><a xlink:href="pages/_document.js" xlink:title="_document.js">
<path fill="#ccffcc" stroke="black" d="M81,-296C81,-296 22,-296 22,-296 19,-296 16,-293 16,-290 16,-290 16,-284 16,-284 16,-281 19,-278 22,-278 22,-278 81,-278 81,-278 84,-278 87,-281 87,-284 87,-284 87,-290 87,-290 87,-293 84,-296 81,-296"/>
<text text-anchor="start" x="24" y="-284.8" font-family="Helvetica,sans-Serif" font-size="9.00">_document.js</text>
</a>
</g>
</g>
<!-- pages/dishes/[dishId].js -->
<g id="node23" class="node">
<title>pages/dishes/[dishId].js</title>
<g id="a_node23"><a xlink:href="pages/dishes/[dishId].js" xlink:title="[dishId].js">
<path fill="#ffffcc" stroke="black" d="M267.5,-360C267.5,-360 224.5,-360 224.5,-360 221.5,-360 218.5,-357 218.5,-354 218.5,-354 218.5,-348 218.5,-348 218.5,-345 221.5,-342 224.5,-342 224.5,-342 267.5,-342 267.5,-342 270.5,-342 273.5,-345 273.5,-348 273.5,-348 273.5,-354 273.5,-354 273.5,-357 270.5,-360 267.5,-360"/>
<text text-anchor="start" x="226.5" y="-348.8" font-family="Helvetica,sans-Serif" font-size="9.00">[dishId].js</text>
</a>
</g>
</g>
<!-- pages/dishes/[dishId].js&#45;&gt;components/Dish/DishTile.js -->
<g id="edge18" class="edge">
<title>pages/dishes/[dishId].js&#45;&gt;components/Dish/DishTile.js</title>
<path fill="none" stroke="#000000" stroke-width="2" stroke-opacity="0.200000" d="M273.64,-351.25C334.01,-351.78 485.91,-353 613,-353 613,-353 613,-353 742.5,-353 876.8,-353 945.49,-553.04 962.34,-610.02"/>
<polygon fill="#000000" fill-opacity="0.200000" stroke="#000000" stroke-width="2" stroke-opacity="0.200000" points="960.37,-610.77 964.05,-615.95 964.4,-609.6 960.37,-610.77"/>
</g>
<!-- pages/dishes/[dishId].js&#45;&gt;pages/404.js -->
<g id="edge19" class="edge">
<title>pages/dishes/[dishId].js&#45;&gt;pages/404.js</title>
<path fill="none" stroke="#000000" stroke-width="2" stroke-opacity="0.200000" d="M273.67,-344.46C307.63,-337.9 365.66,-332.96 397,-366 410.09,-379.8 392.57,-522.6 405,-537 414.53,-548.04 429.99,-551.98 444.1,-552.97"/>
<polygon fill="#000000" fill-opacity="0.200000" stroke="#000000" stroke-width="2" stroke-opacity="0.200000" points="444.38,-555.08 450.46,-553.23 444.55,-550.88 444.38,-555.08"/>
</g>
<!-- pages/dishes/index.js -->
<g id="node24" class="node">
<title>pages/dishes/index.js</title>
<g id="a_node24"><a xlink:href="pages/dishes/index.js" xlink:title="index.js">
<path fill="#ffffcc" stroke="black" d="M267,-330C267,-330 225,-330 225,-330 222,-330 219,-327 219,-324 219,-324 219,-318 219,-318 219,-315 222,-312 225,-312 225,-312 267,-312 267,-312 270,-312 273,-315 273,-318 273,-318 273,-324 273,-324 273,-327 270,-330 267,-330"/>
<text text-anchor="start" x="230" y="-318.8" font-family="Helvetica,sans-Serif" font-size="9.00">index.js</text>
</a>
</g>
</g>
<!-- pages/dishes/index.js&#45;&gt;components/Dish/DishDisplay.js -->
<g id="edge20" class="edge">
<title>pages/dishes/index.js&#45;&gt;components/Dish/DishDisplay.js</title>
<path fill="none" stroke="#000000" stroke-width="2" stroke-opacity="0.200000" d="M273.1,-320.1C370.39,-317.31 710.42,-312.6 789,-380 859.66,-440.6 864.91,-565.83 864.48,-609.54"/>
<polygon fill="#000000" fill-opacity="0.200000" stroke="#000000" stroke-width="2" stroke-opacity="0.200000" points="862.38,-609.57 864.37,-615.61 866.58,-609.64 862.38,-609.57"/>
</g>
<!-- pages/dishes/new.js -->
<g id="node25" class="node">
<title>pages/dishes/new.js</title>
<g id="a_node25"><a xlink:href="pages/dishes/new.js" xlink:title="new.js">
<path fill="#ffffcc" stroke="black" d="M267,-300C267,-300 225,-300 225,-300 222,-300 219,-297 219,-294 219,-294 219,-288 219,-288 219,-285 222,-282 225,-282 225,-282 267,-282 267,-282 270,-282 273,-285 273,-288 273,-288 273,-294 273,-294 273,-297 270,-300 267,-300"/>
<text text-anchor="start" x="233" y="-288.8" font-family="Helvetica,sans-Serif" font-size="9.00">new.js</text>
</a>
</g>
</g>
<!-- pages/dishes/new.js&#45;&gt;components/Dish/DishTile.js -->
<g id="edge21" class="edge">
<title>pages/dishes/new.js&#45;&gt;components/Dish/DishTile.js</title>
<path fill="none" stroke="#000000" stroke-width="2" stroke-opacity="0.200000" d="M273.18,-291.36C333.25,-292.16 485.59,-294 613,-294 613,-294 613,-294 742.5,-294 829.37,-294 870.3,-296.51 925,-364 956.04,-402.29 964.21,-560.15 966.03,-609.91"/>
<polygon fill="#000000" fill-opacity="0.200000" stroke="#000000" stroke-width="2" stroke-opacity="0.200000" points="963.94,-610.01 966.24,-615.93 968.13,-609.87 963.94,-610.01"/>
</g>
<!-- pages/dishes/new.js&#45;&gt;hooks/useAuth.js -->
<g id="edge22" class="edge">
<title>pages/dishes/new.js&#45;&gt;hooks/useAuth.js</title>
<path fill="none" stroke="#000000" stroke-width="2" stroke-opacity="0.200000" d="M273.08,-294.02C304.16,-296.47 356.93,-296.9 397,-278 428.33,-263.23 454.13,-230.54 467.21,-211.51"/>
<polygon fill="#000000" fill-opacity="0.200000" stroke="#000000" stroke-width="2" stroke-opacity="0.200000" points="469.25,-212.24 470.85,-206.08 465.77,-209.9 469.25,-212.24"/>
</g>
<!-- pages/dishes/new.js&#45;&gt;pages/api/axios.js -->
<g id="edge23" class="edge">
<title>pages/dishes/new.js&#45;&gt;pages/api/axios.js</title>
<path fill="none" stroke="#000000" stroke-width="2" stroke-opacity="0.200000" d="M273.19,-286.1C305.59,-281.59 360.89,-279.12 397,-306 456.11,-350 471.48,-445.87 475.3,-483.45"/>
<polygon fill="#000000" fill-opacity="0.200000" stroke="#000000" stroke-width="2" stroke-opacity="0.200000" points="473.24,-483.98 475.88,-489.76 477.42,-483.59 473.24,-483.98"/>
</g>
<!-- pages/dishes/search.js -->
<g id="node26" class="node">
<title>pages/dishes/search.js</title>
<g id="a_node26"><a xlink:href="pages/dishes/search.js" xlink:title="search.js">
<path fill="#ffffcc" stroke="black" d="M267,-390C267,-390 225,-390 225,-390 222,-390 219,-387 219,-384 219,-384 219,-378 219,-378 219,-375 222,-372 225,-372 225,-372 267,-372 267,-372 270,-372 273,-375 273,-378 273,-378 273,-384 273,-384 273,-387 270,-390 267,-390"/>
<text text-anchor="start" x="227.5" y="-378.8" font-family="Helvetica,sans-Serif" font-size="9.00">search.js</text>
</a>
</g>
</g>
<!-- pages/dishes/search.js&#45;&gt;components/Dish/DishDisplay.js -->
<g id="edge24" class="edge">
<title>pages/dishes/search.js&#45;&gt;components/Dish/DishDisplay.js</title>
<path fill="none" stroke="#000000" stroke-width="2" stroke-opacity="0.200000" d="M273.33,-380.24C376.21,-377.52 747.48,-369.94 789,-401 857.26,-452.07 864.12,-567.9 864.28,-609.64"/>
<polygon fill="#000000" fill-opacity="0.200000" stroke="#000000" stroke-width="2" stroke-opacity="0.200000" points="862.18,-609.68 864.26,-615.69 866.38,-609.69 862.18,-609.68"/>
</g>
<!-- pages/dishes/search.js&#45;&gt;components/Dish/DishSearchFormGroup.js -->
<g id="edge25" class="edge">
<title>pages/dishes/search.js&#45;&gt;components/Dish/DishSearchFormGroup.js</title>
<path fill="none" stroke="#000000" stroke-width="2" stroke-opacity="0.200000" d="M273.25,-383.42C355.85,-391.38 609.14,-418.43 681,-457 741.93,-489.7 759.56,-506.43 789,-569 795.76,-583.37 786.4,-628.18 797,-640 797.87,-640.96 798.78,-641.87 799.73,-642.73"/>
<polygon fill="#000000" fill-opacity="0.200000" stroke="#000000" stroke-width="2" stroke-opacity="0.200000" points="798.78,-644.65 804.83,-646.6 801.32,-641.3 798.78,-644.65"/>
</g>
<!-- pages/index.js -->
<g id="node27" class="node">
<title>pages/index.js</title>
<g id="a_node27"><a xlink:href="pages/index.js" xlink:title="index.js">
<path fill="#ffffcc" stroke="black" d="M72.5,-266C72.5,-266 30.5,-266 30.5,-266 27.5,-266 24.5,-263 24.5,-260 24.5,-260 24.5,-254 24.5,-254 24.5,-251 27.5,-248 30.5,-248 30.5,-248 72.5,-248 72.5,-248 75.5,-248 78.5,-251 78.5,-254 78.5,-254 78.5,-260 78.5,-260 78.5,-263 75.5,-266 72.5,-266"/>
<text text-anchor="start" x="35.5" y="-254.8" font-family="Helvetica,sans-Serif" font-size="9.00">index.js</text>
</a>
</g>
</g>
<!-- pages/index.js&#45;&gt;components/Dish/DishTile.js -->
<g id="edge26" class="edge">
<title>pages/index.js&#45;&gt;components/Dish/DishTile.js</title>
<path fill="none" stroke="#000000" stroke-width="2" stroke-opacity="0.200000" d="M55.72,-247.62C61.26,-233.05 74.05,-205.28 95,-192 239.59,-100.36 305.32,-139 476.5,-139 476.5,-139 476.5,-139 742.5,-139 848.34,-139 874.39,-199.04 925,-292 955.51,-348.04 964.19,-552 966.06,-609.7"/>
<polygon fill="#000000" fill-opacity="0.200000" stroke="#000000" stroke-width="2" stroke-opacity="0.200000" points="963.96,-609.77 966.25,-615.7 968.16,-609.64 963.96,-609.77"/>
</g>
<!-- public/img/pexels&#45;adrian&#45;dorobantu&#45;2089712.jpg -->
<g id="node28" class="node">
<title>public/img/pexels&#45;adrian&#45;dorobantu&#45;2089712.jpg</title>
<g id="a_node28"><a xlink:href="public/img/pexels-adrian-dorobantu-2089712.jpg" xlink:title="pexels&#45;adrian&#45;dorobantu&#45;2089712.jpg">
<path fill="#ffffcc" stroke="black" d="M326.5,-72C326.5,-72 165.5,-72 165.5,-72 162.5,-72 159.5,-69 159.5,-66 159.5,-66 159.5,-60 159.5,-60 159.5,-57 162.5,-54 165.5,-54 165.5,-54 326.5,-54 326.5,-54 329.5,-54 332.5,-57 332.5,-60 332.5,-60 332.5,-66 332.5,-66 332.5,-69 329.5,-72 326.5,-72"/>
<text text-anchor="start" x="167.5" y="-60.8" font-family="Helvetica,sans-Serif" font-size="9.00">pexels&#45;adrian&#45;dorobantu&#45;2089712.jpg</text>
</a>
</g>
</g>
<!-- pages/index.js&#45;&gt;public/img/pexels&#45;adrian&#45;dorobantu&#45;2089712.jpg -->
<g id="edge27" class="edge">
<title>pages/index.js&#45;&gt;public/img/pexels&#45;adrian&#45;dorobantu&#45;2089712.jpg</title>
<path fill="none" stroke="#000000" stroke-width="2" stroke-opacity="0.200000" d="M53.07,-247.67C54.95,-224.63 62.85,-164.32 95,-129 121.32,-100.08 162.62,-83.19 195.22,-73.75"/>
<polygon fill="#000000" fill-opacity="0.200000" stroke="#000000" stroke-width="2" stroke-opacity="0.200000" points="195.99,-75.71 201.2,-72.07 194.86,-71.67 195.99,-75.71"/>
</g>
<!-- public/img/taiwan&#45;pearl&#45;milk&#45;tea&#45;with&#45;bubble&#45;ximending&#45;taipei&#45;taiwan.jpg -->
<g id="node29" class="node">
<title>public/img/taiwan&#45;pearl&#45;milk&#45;tea&#45;with&#45;bubble&#45;ximending&#45;taipei&#45;taiwan.jpg</title>
<g id="a_node29"><a xlink:href="public/img/taiwan-pearl-milk-tea-with-bubble-ximending-taipei-taiwan.jpg" xlink:title="taiwan&#45;pearl&#45;milk&#45;tea&#45;with&#45;bubble&#45;ximending&#45;taipei&#45;taiwan.jpg">
<path fill="#ffffcc" stroke="black" d="M375,-42C375,-42 117,-42 117,-42 114,-42 111,-39 111,-36 111,-36 111,-30 111,-30 111,-27 114,-24 117,-24 117,-24 375,-24 375,-24 378,-24 381,-27 381,-30 381,-30 381,-36 381,-36 381,-39 378,-42 375,-42"/>
<text text-anchor="start" x="119" y="-30.8" font-family="Helvetica,sans-Serif" font-size="9.00">taiwan&#45;pearl&#45;milk&#45;tea&#45;with&#45;bubble&#45;ximending&#45;taipei&#45;taiwan.jpg</text>
</a>
</g>
</g>
<!-- pages/index.js&#45;&gt;public/img/taiwan&#45;pearl&#45;milk&#45;tea&#45;with&#45;bubble&#45;ximending&#45;taipei&#45;taiwan.jpg -->
<g id="edge28" class="edge">
<title>pages/index.js&#45;&gt;public/img/taiwan&#45;pearl&#45;milk&#45;tea&#45;with&#45;bubble&#45;ximending&#45;taipei&#45;taiwan.jpg</title>
<path fill="none" stroke="#000000" stroke-width="2" stroke-opacity="0.200000" d="M52.96,-247.89C55.03,-211.26 64.65,-75.43 95,-48 119.48,-25.87 156.24,-21.9 187.24,-23.57"/>
<polygon fill="#000000" fill-opacity="0.200000" stroke="#000000" stroke-width="2" stroke-opacity="0.200000" points="187.23,-25.68 193.36,-23.98 187.51,-21.49 187.23,-25.68"/>
</g>
<!-- pages/menus/[menuId].js -->
<g id="node30" class="node">
<title>pages/menus/[menuId].js</title>
<g id="a_node30"><a xlink:href="pages/menus/[menuId].js" xlink:title="[menuId].js">
<path fill="#ffffcc" stroke="black" d="M270.5,-480C270.5,-480 221.5,-480 221.5,-480 218.5,-480 215.5,-477 215.5,-474 215.5,-474 215.5,-468 215.5,-468 215.5,-465 218.5,-462 221.5,-462 221.5,-462 270.5,-462 270.5,-462 273.5,-462 276.5,-465 276.5,-468 276.5,-468 276.5,-474 276.5,-474 276.5,-477 273.5,-480 270.5,-480"/>
<text text-anchor="start" x="223.5" y="-468.8" font-family="Helvetica,sans-Serif" font-size="9.00">[menuId].js</text>
</a>
</g>
</g>
<!-- pages/menus/[menuId].js&#45;&gt;components/Menus/MenuContent.js -->
<g id="edge31" class="edge">
<title>pages/menus/[menuId].js&#45;&gt;components/Menus/MenuContent.js</title>
<path fill="none" stroke="#000000" stroke-width="2" stroke-opacity="0.200000" d="M276.75,-463.81C311.13,-457.47 366.85,-453.64 397,-486 417.76,-508.28 385.46,-736.64 405,-760 411.47,-767.73 420.82,-772.11 430.63,-774.47"/>
<polygon fill="#000000" fill-opacity="0.200000" stroke="#000000" stroke-width="2" stroke-opacity="0.200000" points="430.48,-776.58 436.78,-775.69 431.3,-772.46 430.48,-776.58"/>
</g>
<!-- pages/menus/[menuId].js&#45;&gt;components/Menus/MenuName.js -->
<g id="edge32" class="edge">
<title>pages/menus/[menuId].js&#45;&gt;components/Menus/MenuName.js</title>
<path fill="none" stroke="#000000" stroke-width="2" stroke-opacity="0.200000" d="M276.93,-467.67C342.07,-461.07 494.05,-449.39 534,-479 606.64,-532.84 613.31,-656.35 613.33,-699.65"/>
<polygon fill="#000000" fill-opacity="0.200000" stroke="#000000" stroke-width="2" stroke-opacity="0.200000" points="611.23,-699.65 613.28,-705.67 615.43,-699.68 611.23,-699.65"/>
</g>
<!-- pages/menus/[menuId].js&#45;&gt;pages/404.js -->
<g id="edge33" class="edge">
<title>pages/menus/[menuId].js&#45;&gt;pages/404.js</title>
<path fill="none" stroke="#000000" stroke-width="2" stroke-opacity="0.200000" d="M276.66,-464.39C310.44,-458.77 365.05,-455.79 397,-486 413.67,-501.76 389.09,-520.47 405,-537 414.97,-547.35 430.17,-551.27 443.99,-552.43"/>
<polygon fill="#000000" fill-opacity="0.200000" stroke="#000000" stroke-width="2" stroke-opacity="0.200000" points="444.12,-554.54 450.23,-552.78 444.36,-550.35 444.12,-554.54"/>
</g>
<!-- pages/menus/index.js -->
<g id="node31" class="node">
<title>pages/menus/index.js</title>
<g id="a_node31"><a xlink:href="pages/menus/index.js" xlink:title="index.js">
<path fill="#ffffcc" stroke="black" d="M267,-540C267,-540 225,-540 225,-540 222,-540 219,-537 219,-534 219,-534 219,-528 219,-528 219,-525 222,-522 225,-522 225,-522 267,-522 267,-522 270,-522 273,-525 273,-528 273,-528 273,-534 273,-534 273,-537 270,-540 267,-540"/>
<text text-anchor="start" x="230" y="-528.8" font-family="Helvetica,sans-Serif" font-size="9.00">index.js</text>
</a>
</g>
</g>
<!-- pages/menus/index.js&#45;&gt;components/Menus/MenuDisplay.js -->
<g id="edge34" class="edge">
<title>pages/menus/index.js&#45;&gt;components/Menus/MenuDisplay.js</title>
<path fill="none" stroke="#000000" stroke-width="2" stroke-opacity="0.200000" d="M258.38,-540.12C296,-570.29 416.47,-666.87 460.33,-702.04"/>
<polygon fill="#000000" fill-opacity="0.200000" stroke="#000000" stroke-width="2" stroke-opacity="0.200000" points="459.06,-703.71 465.05,-705.82 461.68,-700.43 459.06,-703.71"/>
</g>
<!-- pages/menus/new.js -->
<g id="node32" class="node">
<title>pages/menus/new.js</title>
<g id="a_node32"><a xlink:href="pages/menus/new.js" xlink:title="new.js">
<path fill="#ffffcc" stroke="black" d="M267,-510C267,-510 225,-510 225,-510 222,-510 219,-507 219,-504 219,-504 219,-498 219,-498 219,-495 222,-492 225,-492 225,-492 267,-492 267,-492 270,-492 273,-495 273,-498 273,-498 273,-504 273,-504 273,-507 270,-510 267,-510"/>
<text text-anchor="start" x="233" y="-498.8" font-family="Helvetica,sans-Serif" font-size="9.00">new.js</text>
</a>
</g>
</g>
<!-- pages/menus/new.js&#45;&gt;components/Menus/MenuNewCategory.js -->
<g id="edge35" class="edge">
<title>pages/menus/new.js&#45;&gt;components/Menus/MenuNewCategory.js</title>
<path fill="none" stroke="#000000" stroke-width="2" stroke-opacity="0.200000" d="M273.17,-494.49C307.15,-487.79 365.78,-482.49 397,-516 417.76,-538.28 385.46,-766.64 405,-790 408.91,-794.67 413.86,-798.12 419.33,-800.63"/>
<polygon fill="#000000" fill-opacity="0.200000" stroke="#000000" stroke-width="2" stroke-opacity="0.200000" points="418.61,-802.6 424.96,-802.85 420.15,-798.7 418.61,-802.6"/>
</g>
<!-- pages/menus/new.js&#45;&gt;components/Menus/MenuNewRestaurant.js -->
<g id="edge36" class="edge">
<title>pages/menus/new.js&#45;&gt;components/Menus/MenuNewRestaurant.js</title>
<path fill="none" stroke="#000000" stroke-width="2" stroke-opacity="0.200000" d="M273.13,-494.53C307.06,-487.87 365.64,-482.62 397,-516 413.29,-533.34 389.66,-711.81 405,-730 407.92,-733.47 411.42,-736.26 415.29,-738.49"/>
<polygon fill="#000000" fill-opacity="0.200000" stroke="#000000" stroke-width="2" stroke-opacity="0.200000" points="414.44,-740.42 420.75,-741.21 416.31,-736.66 414.44,-740.42"/>
</g>
<!-- pages/menus/new.js&#45;&gt;hooks/useAuth.js -->
<g id="edge37" class="edge">
<title>pages/menus/new.js&#45;&gt;hooks/useAuth.js</title>
<path fill="none" stroke="#000000" stroke-width="2" stroke-opacity="0.200000" d="M273.17,-506.5C306.06,-511.79 362.4,-515.2 397,-486 440.19,-449.55 467.32,-266.9 474.55,-212.38"/>
<polygon fill="#000000" fill-opacity="0.200000" stroke="#000000" stroke-width="2" stroke-opacity="0.200000" points="476.68,-212.34 475.37,-206.11 472.51,-211.79 476.68,-212.34"/>
</g>
<!-- pages/menus/new.js&#45;&gt;pages/api/axios.js -->
<g id="edge38" class="edge">
<title>pages/menus/new.js&#45;&gt;pages/api/axios.js</title>
<path fill="none" stroke="#000000" stroke-width="2" stroke-opacity="0.200000" d="M273.33,-500.77C315.61,-500.4 398.53,-499.68 444.28,-499.28"/>
<polygon fill="#000000" fill-opacity="0.200000" stroke="#000000" stroke-width="2" stroke-opacity="0.200000" points="444.5,-501.38 450.48,-499.23 444.46,-497.18 444.5,-501.38"/>
</g>
<!-- pages/menus/search.js -->
<g id="node33" class="node">
<title>pages/menus/search.js</title>
<g id="a_node33"><a xlink:href="pages/menus/search.js" xlink:title="search.js">
<path fill="#ffffcc" stroke="black" d="M267,-450C267,-450 225,-450 225,-450 222,-450 219,-447 219,-444 219,-444 219,-438 219,-438 219,-435 222,-432 225,-432 225,-432 267,-432 267,-432 270,-432 273,-435 273,-438 273,-438 273,-444 273,-444 273,-447 270,-450 267,-450"/>
<text text-anchor="start" x="227.5" y="-438.8" font-family="Helvetica,sans-Serif" font-size="9.00">search.js</text>
</a>
</g>
</g>
<!-- pages/menus/search.js&#45;&gt;components/Dish/DishSearchFormGroup.js -->
<g id="edge39" class="edge">
<title>pages/menus/search.js&#45;&gt;components/Dish/DishSearchFormGroup.js</title>
<path fill="none" stroke="#000000" stroke-width="2" stroke-opacity="0.200000" d="M273.24,-437.67C324.85,-432.13 442.47,-424.51 534,-456 668.9,-502.41 666.47,-582.44 797,-640 800.44,-641.52 804.04,-642.88 807.72,-644.12"/>
<polygon fill="#000000" fill-opacity="0.200000" stroke="#000000" stroke-width="2" stroke-opacity="0.200000" points="807.2,-646.16 813.55,-645.96 808.46,-642.15 807.2,-646.16"/>
</g>
<!-- pages/menus/search.js&#45;&gt;components/Menus/MenuDisplay.js -->
<g id="edge40" class="edge">
<title>pages/menus/search.js&#45;&gt;components/Menus/MenuDisplay.js</title>
<path fill="none" stroke="#000000" stroke-width="2" stroke-opacity="0.200000" d="M273.03,-434.63C306.85,-428.07 365.3,-422.94 397,-456 407.71,-467.17 400.47,-580.21 405,-595 417.9,-637.07 448.43,-679.79 465.12,-701.1"/>
<polygon fill="#000000" fill-opacity="0.200000" stroke="#000000" stroke-width="2" stroke-opacity="0.200000" points="463.48,-702.41 468.85,-705.8 466.77,-699.8 463.48,-702.41"/>
</g>
</g>
</svg>
